<mxfile host="app.diagrams.net" agent="Mozilla/5.0 (Windows NT 10.0; Win64; x64) AppleWebKit/537.36 (KHTML, like Gecko) Chrome/128.0.0.0 Safari/537.36" version="24.7.16" pages="2">
  <diagram name="Cortex Data Foundation FlowChart" id="c7488fd3-1785-93aa-aadb-54a6760d102a">
    <mxGraphModel dx="2201" dy="576" grid="1" gridSize="10" guides="1" tooltips="1" connect="1" arrows="1" fold="1" page="1" pageScale="1" pageWidth="1100" pageHeight="850" background="none" math="0" shadow="0">
      <root>
        <mxCell id="0" />
        <mxCell id="1" parent="0" />
        <mxCell id="2b4e8129b02d487f-1" value="Cortex Data Foundation" style="swimlane;html=1;childLayout=stackLayout;horizontal=1;startSize=20;horizontalStack=0;rounded=0;shadow=0;labelBackgroundColor=none;strokeWidth=1;fontFamily=Verdana;fontSize=8;align=center;" parent="1" vertex="1">
          <mxGeometry x="-90" y="60" width="2860" height="573" as="geometry" />
        </mxCell>
        <mxCell id="2b4e8129b02d487f-2" value="Customer" style="swimlane;html=1;startSize=20;horizontal=0;fontFamily=Verdana;fontSize=8;fontStyle=1" parent="2b4e8129b02d487f-1" vertex="1">
          <mxGeometry y="20" width="2860" height="320" as="geometry">
            <mxRectangle y="20" width="1160" height="20" as="alternateBounds" />
          </mxGeometry>
        </mxCell>
        <mxCell id="2b4e8129b02d487f-18" style="edgeStyle=orthogonalEdgeStyle;rounded=0;html=1;labelBackgroundColor=none;startArrow=none;startFill=0;startSize=5;endArrow=classicThin;endFill=1;endSize=5;jettySize=auto;orthogonalLoop=1;strokeWidth=1;fontFamily=Verdana;fontSize=8;entryX=0;entryY=0.5;entryDx=0;entryDy=0;entryPerimeter=0;" parent="2b4e8129b02d487f-2" source="2b4e8129b02d487f-5" target="3nnQ7Ushw-DorLXUezs_-10" edge="1">
          <mxGeometry relative="1" as="geometry">
            <mxPoint x="119.99999999999989" y="109.5" as="targetPoint" />
          </mxGeometry>
        </mxCell>
        <mxCell id="2b4e8129b02d487f-5" value="" style="ellipse;whiteSpace=wrap;html=1;rounded=0;shadow=0;labelBackgroundColor=none;strokeWidth=1;fontFamily=Verdana;fontSize=8;align=center;fillColor=#dae8fc;strokeColor=#6c8ebf;" parent="2b4e8129b02d487f-2" vertex="1">
          <mxGeometry x="40" y="75.63" width="30" height="30" as="geometry" />
        </mxCell>
        <UserObject label="Understand&amp;nbsp;&lt;div style=&quot;font-size: 8px;&quot;&gt;which&amp;nbsp;&lt;/div&gt;&lt;div style=&quot;font-size: 8px;&quot;&gt;business area&amp;nbsp;&lt;div style=&quot;font-size: 8px;&quot;&gt;to focus?&lt;/div&gt;&lt;/div&gt;" linkTarget="_blank" id="3nnQ7Ushw-DorLXUezs_-10">
          <mxCell style="strokeWidth=1;html=1;shape=mxgraph.flowchart.decision;whiteSpace=wrap;rounded=1;shadow=0;labelBackgroundColor=none;fontFamily=Verdana;fontSize=8;align=center;" parent="2b4e8129b02d487f-2" vertex="1">
            <mxGeometry x="110" y="49.56999999999999" width="80" height="82.12" as="geometry" />
          </mxCell>
        </UserObject>
        <mxCell id="2b4e8129b02d487f-24" style="edgeStyle=orthogonalEdgeStyle;rounded=0;html=1;labelBackgroundColor=none;startArrow=none;startFill=0;startSize=5;endArrow=classicThin;endFill=1;endSize=5;jettySize=auto;orthogonalLoop=1;strokeWidth=1;fontFamily=Verdana;fontSize=8;entryX=0;entryY=0.5;entryDx=0;entryDy=0;entryPerimeter=0;exitX=1;exitY=0.5;exitDx=0;exitDy=0;exitPerimeter=0;" parent="2b4e8129b02d487f-2" source="3nnQ7Ushw-DorLXUezs_-10" target="8XIpxn57dQOoP4oBzjdO-17" edge="1">
          <mxGeometry relative="1" as="geometry">
            <mxPoint x="230" y="134.5" as="sourcePoint" />
            <mxPoint x="150.0000000000001" y="193.5" as="targetPoint" />
            <Array as="points" />
          </mxGeometry>
        </mxCell>
        <mxCell id="3nnQ7Ushw-DorLXUezs_-4" value="&lt;font style=&quot;font-size: 8px;&quot;&gt;Yes&lt;/font&gt;" style="edgeLabel;html=1;align=center;verticalAlign=middle;resizable=0;points=[];fontSize=8;fontFamily=Verdana;" parent="2b4e8129b02d487f-24" vertex="1" connectable="0">
          <mxGeometry x="-0.2582" y="-1" relative="1" as="geometry">
            <mxPoint as="offset" />
          </mxGeometry>
        </mxCell>
        <mxCell id="2b4e8129b02d487f-9" value="Share sample data &amp;amp; DD03L table entries for all related tables" style="rounded=1;whiteSpace=wrap;html=1;shadow=0;labelBackgroundColor=none;strokeWidth=1;fontFamily=Verdana;fontSize=8;align=center;" parent="2b4e8129b02d487f-2" vertex="1">
          <mxGeometry x="580" y="238.75" width="100" height="43.5" as="geometry" />
        </mxCell>
        <mxCell id="8XIpxn57dQOoP4oBzjdO-18" value="Share business metrics and/or related columns and tables&amp;nbsp;" style="rounded=1;whiteSpace=wrap;html=1;shadow=0;labelBackgroundColor=none;strokeWidth=1;fontFamily=Verdana;fontSize=8;align=center;" parent="2b4e8129b02d487f-2" vertex="1">
          <mxGeometry x="261.25" y="230" width="102.5" height="61" as="geometry" />
        </mxCell>
        <mxCell id="8XIpxn57dQOoP4oBzjdO-81" style="edgeStyle=orthogonalEdgeStyle;rounded=0;html=1;labelBackgroundColor=none;startArrow=none;startFill=0;startSize=5;endArrow=classicThin;endFill=1;endSize=5;jettySize=auto;orthogonalLoop=1;strokeWidth=1;fontFamily=Verdana;fontSize=8;entryX=0;entryY=0.5;entryDx=0;entryDy=0;exitX=1;exitY=0.5;exitDx=0;exitDy=0;exitPerimeter=0;" parent="2b4e8129b02d487f-2" source="8XIpxn57dQOoP4oBzjdO-17" target="8XIpxn57dQOoP4oBzjdO-116" edge="1">
          <mxGeometry relative="1" as="geometry">
            <mxPoint x="200" y="100.5" as="sourcePoint" />
            <mxPoint x="542.5" y="90.625" as="targetPoint" />
            <Array as="points" />
          </mxGeometry>
        </mxCell>
        <mxCell id="8XIpxn57dQOoP4oBzjdO-82" value="No" style="edgeLabel;html=1;align=center;verticalAlign=middle;resizable=0;points=[];fontSize=8;fontFamily=Verdana;" parent="8XIpxn57dQOoP4oBzjdO-81" vertex="1" connectable="0">
          <mxGeometry x="-0.2381" y="2" relative="1" as="geometry">
            <mxPoint as="offset" />
          </mxGeometry>
        </mxCell>
        <mxCell id="8XIpxn57dQOoP4oBzjdO-17" value="Recognize the&amp;nbsp;&lt;div style=&quot;font-size: 8px;&quot;&gt;columns and tables to target?&lt;/div&gt;" style="strokeWidth=1;html=1;shape=mxgraph.flowchart.decision;whiteSpace=wrap;rounded=1;shadow=0;labelBackgroundColor=none;fontFamily=Verdana;fontSize=8;align=center;" parent="2b4e8129b02d487f-2" vertex="1">
          <mxGeometry x="265" y="41" width="95" height="99.25" as="geometry" />
        </mxCell>
        <mxCell id="8XIpxn57dQOoP4oBzjdO-85" value="" style="edgeStyle=orthogonalEdgeStyle;rounded=0;html=1;labelBackgroundColor=none;startArrow=none;startFill=0;startSize=5;endArrow=classicThin;endFill=1;endSize=5;jettySize=auto;orthogonalLoop=1;strokeWidth=1;fontFamily=Verdana;fontSize=8;entryX=0.5;entryY=0;entryDx=0;entryDy=0;exitX=0.5;exitY=0;exitDx=0;exitDy=0;exitPerimeter=0;" parent="2b4e8129b02d487f-2" source="3nnQ7Ushw-DorLXUezs_-10" target="8XIpxn57dQOoP4oBzjdO-116" edge="1">
          <mxGeometry relative="1" as="geometry">
            <mxPoint x="185" y="239.97000000000003" as="sourcePoint" />
            <mxPoint x="590" y="41" as="targetPoint" />
            <Array as="points" />
          </mxGeometry>
        </mxCell>
        <mxCell id="8XIpxn57dQOoP4oBzjdO-86" value="&lt;font style=&quot;font-size: 8px;&quot;&gt;No&lt;/font&gt;" style="edgeLabel;html=1;align=center;verticalAlign=middle;resizable=0;points=[];fontSize=8;fontFamily=Verdana;" parent="8XIpxn57dQOoP4oBzjdO-85" vertex="1" connectable="0">
          <mxGeometry x="-0.2381" y="2" relative="1" as="geometry">
            <mxPoint as="offset" />
          </mxGeometry>
        </mxCell>
        <mxCell id="8XIpxn57dQOoP4oBzjdO-87" value="" style="edgeStyle=none;curved=1;rounded=0;orthogonalLoop=1;jettySize=auto;html=1;fontSize=8;startSize=8;endSize=8;exitX=0.5;exitY=1;exitDx=0;exitDy=0;exitPerimeter=0;entryX=0.5;entryY=0;entryDx=0;entryDy=0;fontFamily=Verdana;" parent="2b4e8129b02d487f-2" source="8XIpxn57dQOoP4oBzjdO-17" target="8XIpxn57dQOoP4oBzjdO-18" edge="1">
          <mxGeometry relative="1" as="geometry">
            <mxPoint x="518" y="169" as="sourcePoint" />
            <mxPoint x="438" y="243.5" as="targetPoint" />
          </mxGeometry>
        </mxCell>
        <mxCell id="8XIpxn57dQOoP4oBzjdO-88" value="Yes" style="edgeLabel;html=1;align=center;verticalAlign=middle;resizable=0;points=[];fontSize=8;fontFamily=Verdana;" parent="8XIpxn57dQOoP4oBzjdO-87" vertex="1" connectable="0">
          <mxGeometry x="-0.3699" relative="1" as="geometry">
            <mxPoint as="offset" />
          </mxGeometry>
        </mxCell>
        <mxCell id="8XIpxn57dQOoP4oBzjdO-115" value="Additional metrics/ columns/ tables required?" style="strokeWidth=1;html=1;shape=mxgraph.flowchart.decision;whiteSpace=wrap;rounded=1;shadow=0;labelBackgroundColor=none;fontFamily=Verdana;fontSize=8;align=center;" parent="2b4e8129b02d487f-2" vertex="1">
          <mxGeometry x="420" y="159.25" width="95" height="99.25" as="geometry" />
        </mxCell>
        <UserObject label="Select Prepackaged&amp;nbsp;&lt;div style=&quot;font-size: 8px;&quot;&gt;Solutions from&amp;nbsp;&lt;/div&gt;&lt;div style=&quot;font-size: 8px;&quot;&gt;Cortex caters&amp;nbsp;&lt;/div&gt;&lt;div style=&quot;font-size: 8px;&quot;&gt;business needs&lt;/div&gt;" linkTarget="_blank" link="https://docs.google.com/spreadsheets/d/1UfQDruvGNXdOX_HyEKdFS9WtTrrFMmgHbjSLisxJOdM/edit?gid=2010658788#gid=2010658788" id="8XIpxn57dQOoP4oBzjdO-116">
          <mxCell style="rounded=1;whiteSpace=wrap;html=1;shadow=0;labelBackgroundColor=none;strokeWidth=1;fontFamily=Verdana;fontSize=8;align=center;" parent="2b4e8129b02d487f-2" vertex="1">
            <mxGeometry x="420" y="60.129999999999995" width="102.5" height="61" as="geometry" />
          </mxCell>
        </UserObject>
        <mxCell id="8XIpxn57dQOoP4oBzjdO-117" style="edgeStyle=orthogonalEdgeStyle;rounded=0;html=1;labelBackgroundColor=none;startArrow=none;startFill=0;startSize=5;endArrow=classicThin;endFill=1;endSize=5;jettySize=auto;orthogonalLoop=1;strokeWidth=1;fontFamily=Verdana;fontSize=8;exitX=0.5;exitY=1;exitDx=0;exitDy=0;entryX=0.5;entryY=0;entryDx=0;entryDy=0;entryPerimeter=0;" parent="2b4e8129b02d487f-2" source="8XIpxn57dQOoP4oBzjdO-116" target="8XIpxn57dQOoP4oBzjdO-115" edge="1">
          <mxGeometry relative="1" as="geometry">
            <mxPoint x="880" y="116.69" as="sourcePoint" />
            <mxPoint x="588.7499999999998" y="140.25" as="targetPoint" />
          </mxGeometry>
        </mxCell>
        <mxCell id="8XIpxn57dQOoP4oBzjdO-120" value="" style="edgeStyle=orthogonalEdgeStyle;rounded=0;html=1;labelBackgroundColor=none;startArrow=none;startFill=0;startSize=5;endArrow=classicThin;endFill=1;endSize=5;jettySize=auto;orthogonalLoop=1;strokeWidth=1;fontFamily=Verdana;fontSize=8;exitX=0;exitY=0.5;exitDx=0;exitDy=0;exitPerimeter=0;entryX=0.5;entryY=0;entryDx=0;entryDy=0;" parent="2b4e8129b02d487f-2" source="8XIpxn57dQOoP4oBzjdO-115" target="8XIpxn57dQOoP4oBzjdO-18" edge="1">
          <mxGeometry relative="1" as="geometry">
            <mxPoint x="160" y="79" as="sourcePoint" />
            <mxPoint x="310" y="230" as="targetPoint" />
            <Array as="points">
              <mxPoint x="313" y="209" />
              <mxPoint x="313" y="210" />
              <mxPoint x="313" y="210" />
            </Array>
          </mxGeometry>
        </mxCell>
        <mxCell id="8XIpxn57dQOoP4oBzjdO-121" value="Yes" style="edgeLabel;html=1;align=center;verticalAlign=middle;resizable=0;points=[];fontSize=8;fontFamily=Verdana;" parent="8XIpxn57dQOoP4oBzjdO-120" vertex="1" connectable="0">
          <mxGeometry x="-0.2381" y="2" relative="1" as="geometry">
            <mxPoint as="offset" />
          </mxGeometry>
        </mxCell>
        <mxCell id="8XIpxn57dQOoP4oBzjdO-122" value="" style="edgeStyle=orthogonalEdgeStyle;rounded=0;html=1;labelBackgroundColor=none;startArrow=none;startFill=0;startSize=5;endArrow=classicThin;endFill=1;endSize=5;jettySize=auto;orthogonalLoop=1;strokeWidth=1;fontFamily=Verdana;fontSize=8;exitX=1;exitY=0.5;exitDx=0;exitDy=0;exitPerimeter=0;entryX=0.5;entryY=0;entryDx=0;entryDy=0;" parent="2b4e8129b02d487f-2" source="8XIpxn57dQOoP4oBzjdO-115" target="2b4e8129b02d487f-9" edge="1">
          <mxGeometry relative="1" as="geometry">
            <mxPoint x="551" y="219" as="sourcePoint" />
            <mxPoint x="323" y="240" as="targetPoint" />
            <Array as="points">
              <mxPoint x="630" y="209" />
            </Array>
          </mxGeometry>
        </mxCell>
        <mxCell id="8XIpxn57dQOoP4oBzjdO-123" value="No" style="edgeLabel;html=1;align=center;verticalAlign=middle;resizable=0;points=[];fontSize=8;fontFamily=Verdana;" parent="8XIpxn57dQOoP4oBzjdO-122" vertex="1" connectable="0">
          <mxGeometry x="-0.2381" y="2" relative="1" as="geometry">
            <mxPoint as="offset" />
          </mxGeometry>
        </mxCell>
        <mxCell id="GaoXwOq1-sufGCuM6m9Q-1" value="&lt;font color=&quot;#000000&quot; style=&quot;font-size: 8px;&quot;&gt;Click to&amp;nbsp;&lt;/font&gt;&lt;font color=&quot;#000000&quot; style=&quot;background-color: initial; font-size: 8px;&quot;&gt;follow link&amp;nbsp;&lt;/font&gt;&lt;span style=&quot;background-color: initial; font-size: 8px; color: rgb(0, 0, 0);&quot;&gt;to&amp;nbsp;&lt;/span&gt;&lt;div style=&quot;font-size: 8px;&quot;&gt;&lt;font color=&quot;#000000&quot; style=&quot;font-size: 8px;&quot;&gt;view prepackaged solutions&lt;/font&gt;&lt;/div&gt;" style="strokeWidth=1;html=1;shape=mxgraph.flowchart.annotation_2;align=left;labelPosition=right;pointerEvents=1;strokeColor=#000000;fontColor=#FFFFFF;fillColor=#182E3E;rotation=0;flipV=1;flipH=1;verticalAlign=middle;fontSize=8;fontFamily=Verdana;" parent="2b4e8129b02d487f-2" vertex="1">
          <mxGeometry x="530" y="60.88" width="20" height="60.25" as="geometry" />
        </mxCell>
        <mxCell id="izewsPavvaRHflIKvxHS-1" value="&lt;font color=&quot;#000000&quot; style=&quot;font-size: 8px;&quot;&gt;&lt;span style=&quot;font-size: 8px;&quot;&gt;DD03L data is mandatory&amp;nbsp;&lt;/span&gt;&lt;/font&gt;&lt;div style=&quot;font-size: 8px;&quot;&gt;&lt;font color=&quot;#000000&quot; style=&quot;font-size: 8px;&quot;&gt;&lt;span style=&quot;font-size: 8px;&quot;&gt;for Cortex Framework&lt;/span&gt;&lt;/font&gt;&lt;div style=&quot;font-size: 8px;&quot;&gt;&lt;font color=&quot;#000000&quot; style=&quot;font-size: 8px;&quot;&gt;&lt;span style=&quot;font-size: 8px;&quot;&gt;while&amp;nbsp;&lt;/span&gt;&lt;/font&gt;&lt;span style=&quot;font-size: 8px; color: rgb(0, 0, 0); background-color: initial;&quot;&gt;sample data is optional&amp;nbsp;&lt;/span&gt;&lt;div style=&quot;font-size: 8px;&quot;&gt;&lt;font color=&quot;#000000&quot; style=&quot;font-size: 8px;&quot;&gt;&lt;span style=&quot;font-size: 8px;&quot;&gt;but is&amp;nbsp;&lt;/span&gt;&lt;/font&gt;&lt;span style=&quot;font-size: 8px; color: rgb(0, 0, 0); background-color: initial;&quot;&gt;highly recommended&amp;nbsp;&lt;/span&gt;&lt;/div&gt;&lt;div style=&quot;font-size: 8px;&quot;&gt;&lt;span style=&quot;font-size: 8px; color: rgb(0, 0, 0); background-color: initial;&quot;&gt;to prepare DAGs scripts for&amp;nbsp;&lt;/span&gt;&lt;/div&gt;&lt;div style=&quot;font-size: 8px;&quot;&gt;&lt;span style=&quot;font-size: 8px; color: rgb(0, 0, 0); background-color: initial;&quot;&gt;Reporting layer&lt;/span&gt;&lt;/div&gt;&lt;/div&gt;&lt;/div&gt;" style="strokeWidth=1;html=1;shape=mxgraph.flowchart.annotation_2;align=left;labelPosition=right;pointerEvents=1;strokeColor=#000000;fontColor=#FFFFFF;fillColor=#182E3E;rotation=0;flipV=1;flipH=1;verticalAlign=middle;fontSize=8;fontFamily=Verdana;" parent="2b4e8129b02d487f-2" vertex="1">
          <mxGeometry x="730" y="230.75" width="20" height="60.25" as="geometry" />
        </mxCell>
        <UserObject label="Decide on data replication tool/mechanism from SAP to raw landing dataset in BiqQuery" link="https://github.com/https-github-com-PointStarCloud/cortex-data-foundation/blob/pointstar-main/docs/Cortex_SAP_Connector_FlowChart.pdf" linkTarget="_blank" id="fWoCJdbc-hyU086nvXv1-3">
          <mxCell style="shape=process;whiteSpace=wrap;html=1;backgroundOutline=1;fontFamily=Verdana;fontSize=8;" parent="2b4e8129b02d487f-2" vertex="1">
            <mxGeometry x="1160" y="230" width="120" height="60" as="geometry" />
          </mxCell>
        </UserObject>
        <mxCell id="izewsPavvaRHflIKvxHS-73" value="&lt;div style=&quot;font-size: 8px;&quot;&gt;Verified Workload&amp;nbsp;&lt;/div&gt;&lt;div style=&quot;font-size: 8px;&quot;&gt;Deployment?&lt;br style=&quot;font-size: 8px;&quot;&gt;&lt;/div&gt;" style="strokeWidth=1;html=1;shape=mxgraph.flowchart.decision;whiteSpace=wrap;rounded=1;shadow=0;labelBackgroundColor=none;fontFamily=Verdana;fontSize=8;align=center;" parent="2b4e8129b02d487f-2" vertex="1">
          <mxGeometry x="2080" y="148.32" width="121.2" height="110.18" as="geometry" />
        </mxCell>
        <mxCell id="izewsPavvaRHflIKvxHS-80" value="&lt;div style=&quot;font-size: 8px;&quot;&gt;Pre-production&amp;nbsp;&lt;/div&gt;&lt;div style=&quot;font-size: 8px;&quot;&gt;setup is required?&lt;/div&gt;" style="strokeWidth=1;html=1;shape=mxgraph.flowchart.decision;whiteSpace=wrap;rounded=1;shadow=0;labelBackgroundColor=none;fontFamily=Verdana;fontSize=8;align=center;" parent="2b4e8129b02d487f-2" vertex="1">
          <mxGeometry x="929.9999999999998" y="10.950000000000003" width="121.2" height="110.18" as="geometry" />
        </mxCell>
        <UserObject label="Setup Configuration for SAP Data Replication Tool" linkTarget="_blank" id="izewsPavvaRHflIKvxHS-86">
          <mxCell style="shape=process;whiteSpace=wrap;html=1;backgroundOutline=1;fontFamily=Verdana;fontSize=8;" parent="2b4e8129b02d487f-2" vertex="1">
            <mxGeometry x="1380" y="150" width="120" height="60" as="geometry" />
          </mxCell>
        </UserObject>
        <mxCell id="izewsPavvaRHflIKvxHS-90" value="&lt;font color=&quot;#000000&quot; style=&quot;font-size: 8px;&quot;&gt;&lt;span style=&quot;font-size: 8px;&quot;&gt;Recommended if data replication&amp;nbsp;&lt;/span&gt;&lt;/font&gt;&lt;span style=&quot;font-size: 8px; color: rgb(0, 0, 0);&quot;&gt;to BigQuery from&amp;nbsp;&lt;/span&gt;&lt;div style=&quot;font-size: 8px;&quot;&gt;&lt;font color=&quot;#000000&quot; style=&quot;font-size: 8px;&quot;&gt;&lt;span style=&quot;font-size: 8px;&quot;&gt;SAP pre-production environment is functional.&amp;nbsp;&lt;/span&gt;&lt;/font&gt;&lt;/div&gt;&lt;div style=&quot;font-size: 8px;&quot;&gt;&lt;font color=&quot;#000000&quot; style=&quot;font-size: 8px;&quot;&gt;&lt;span style=&quot;font-size: 8px;&quot;&gt;A CI/CD pipeline can be configured&lt;/span&gt;&lt;/font&gt;&lt;/div&gt;" style="strokeWidth=1;html=1;shape=mxgraph.flowchart.annotation_2;align=left;labelPosition=right;pointerEvents=1;strokeColor=#000000;fontColor=#FFFFFF;fillColor=#182E3E;rotation=0;flipV=1;flipH=1;verticalAlign=middle;fontSize=8;fontFamily=Verdana;" parent="2b4e8129b02d487f-2" vertex="1">
          <mxGeometry x="1100" y="35.91" width="20" height="60.25" as="geometry" />
        </mxCell>
        <mxCell id="izewsPavvaRHflIKvxHS-92" value="&lt;font color=&quot;#000000&quot; style=&quot;text-align: left; font-size: 8px;&quot;&gt;Click to&amp;nbsp;&lt;/font&gt;&lt;font color=&quot;#000000&quot; style=&quot;text-align: left; background-color: initial; font-size: 8px;&quot;&gt;follow link&amp;nbsp;&lt;/font&gt;&lt;span style=&quot;text-align: left; background-color: initial; font-size: 8px;&quot;&gt;to&amp;nbsp;&lt;/span&gt;&lt;div style=&quot;color: rgb(255, 255, 255); font-size: 8px; text-align: left;&quot;&gt;&lt;font color=&quot;#000000&quot; style=&quot;font-size: 8px;&quot;&gt;view available leading connectors&lt;/font&gt;&lt;/div&gt;" style="edgeStyle=orthogonalEdgeStyle;rounded=0;html=1;labelBackgroundColor=none;startArrow=none;startFill=0;startSize=5;endArrow=classicThin;endFill=1;endSize=5;jettySize=auto;orthogonalLoop=1;strokeWidth=1;fontFamily=Verdana;fontSize=8;entryX=0;entryY=0.5;entryDx=0;entryDy=0;exitX=1;exitY=0.5;exitDx=0;exitDy=0;exitPerimeter=0;" parent="2b4e8129b02d487f-2" source="izewsPavvaRHflIKvxHS-80" target="fWoCJdbc-hyU086nvXv1-3" edge="1">
          <mxGeometry x="0.1413" y="40" relative="1" as="geometry">
            <mxPoint as="offset" />
            <mxPoint x="990" y="290" as="sourcePoint" />
            <mxPoint x="1100" y="75.63" as="targetPoint" />
            <Array as="points">
              <mxPoint x="1080" y="66" />
              <mxPoint x="1080" y="260" />
            </Array>
          </mxGeometry>
        </mxCell>
        <mxCell id="izewsPavvaRHflIKvxHS-152" value="&lt;font color=&quot;#000000&quot; style=&quot;font-size: 8px;&quot;&gt;No&lt;/font&gt;" style="edgeLabel;html=1;align=center;verticalAlign=middle;resizable=0;points=[];fontSize=8;strokeColor=#BAC8D3;fontColor=#EEEEEE;fillColor=#09555B;fontFamily=Verdana;" parent="izewsPavvaRHflIKvxHS-92" vertex="1" connectable="0">
          <mxGeometry x="-0.8089" y="-3" relative="1" as="geometry">
            <mxPoint x="-9" y="-19" as="offset" />
          </mxGeometry>
        </mxCell>
        <mxCell id="izewsPavvaRHflIKvxHS-188" value="&lt;div style=&quot;text-align: left; font-size: 8px;&quot;&gt;&lt;br style=&quot;font-size: 8px;&quot;&gt;&lt;/div&gt;" style="edgeStyle=orthogonalEdgeStyle;rounded=0;html=1;labelBackgroundColor=none;startArrow=none;startFill=0;startSize=5;endArrow=classicThin;endFill=1;endSize=5;jettySize=auto;orthogonalLoop=1;strokeWidth=1;fontFamily=Verdana;fontSize=8;exitX=1;exitY=0.5;exitDx=0;exitDy=0;entryX=0;entryY=0.5;entryDx=0;entryDy=0;" parent="2b4e8129b02d487f-2" source="fWoCJdbc-hyU086nvXv1-3" target="izewsPavvaRHflIKvxHS-86" edge="1">
          <mxGeometry x="-0.9512" y="-21" relative="1" as="geometry">
            <mxPoint as="offset" />
            <mxPoint x="1001" y="131" as="sourcePoint" />
            <mxPoint x="990" y="484" as="targetPoint" />
            <Array as="points">
              <mxPoint x="1280" y="290" />
              <mxPoint x="1300" y="290" />
              <mxPoint x="1300" y="180" />
            </Array>
          </mxGeometry>
        </mxCell>
        <mxCell id="izewsPavvaRHflIKvxHS-83" value="&lt;div style=&quot;font-size: 8px;&quot;&gt;Source and Target Datasource is separated?&lt;/div&gt;" style="strokeWidth=1;html=1;shape=mxgraph.flowchart.decision;whiteSpace=wrap;rounded=1;shadow=0;labelBackgroundColor=none;fontFamily=Verdana;fontSize=8;align=center;" parent="2b4e8129b02d487f-2" vertex="1">
          <mxGeometry x="1610" y="75.63" width="121.2" height="110.18" as="geometry" />
        </mxCell>
        <mxCell id="izewsPavvaRHflIKvxHS-197" value="&lt;div style=&quot;text-align: left; font-size: 8px;&quot;&gt;&lt;br style=&quot;font-size: 8px;&quot;&gt;&lt;/div&gt;" style="edgeStyle=orthogonalEdgeStyle;rounded=0;html=1;labelBackgroundColor=none;startArrow=none;startFill=0;startSize=5;endArrow=classicThin;endFill=1;endSize=5;jettySize=auto;orthogonalLoop=1;strokeWidth=1;fontFamily=Verdana;fontSize=8;exitX=1;exitY=0.5;exitDx=0;exitDy=0;entryX=0;entryY=0.5;entryDx=0;entryDy=0;entryPerimeter=0;" parent="2b4e8129b02d487f-2" source="izewsPavvaRHflIKvxHS-86" target="izewsPavvaRHflIKvxHS-83" edge="1">
          <mxGeometry x="-0.9512" y="-21" relative="1" as="geometry">
            <mxPoint as="offset" />
            <mxPoint x="1290" y="270" as="sourcePoint" />
            <mxPoint x="1350" y="279" as="targetPoint" />
            <Array as="points">
              <mxPoint x="1590" y="180" />
              <mxPoint x="1590" y="131" />
            </Array>
          </mxGeometry>
        </mxCell>
        <UserObject label="Setup Shared VPC/VPC Peering" linkTarget="_blank" id="izewsPavvaRHflIKvxHS-202">
          <mxCell style="shape=process;whiteSpace=wrap;html=1;backgroundOutline=1;fontFamily=Verdana;fontSize=8;" parent="2b4e8129b02d487f-2" vertex="1">
            <mxGeometry x="1700" y="198.5" width="120" height="60" as="geometry" />
          </mxCell>
        </UserObject>
        <mxCell id="izewsPavvaRHflIKvxHS-200" value="Yes" style="edgeStyle=orthogonalEdgeStyle;rounded=0;html=1;labelBackgroundColor=none;startArrow=none;startFill=0;startSize=5;endArrow=classicThin;endFill=1;endSize=5;jettySize=auto;orthogonalLoop=1;strokeWidth=1;fontFamily=Verdana;fontSize=8;exitX=1;exitY=0.5;exitDx=0;exitDy=0;exitPerimeter=0;entryX=0.5;entryY=0;entryDx=0;entryDy=0;" parent="2b4e8129b02d487f-2" source="izewsPavvaRHflIKvxHS-83" target="izewsPavvaRHflIKvxHS-202" edge="1">
          <mxGeometry x="-0.9512" y="-21" relative="1" as="geometry">
            <mxPoint as="offset" />
            <mxPoint x="1795" y="150" as="sourcePoint" />
            <mxPoint x="1800" y="190" as="targetPoint" />
            <Array as="points">
              <mxPoint x="1740" y="131" />
              <mxPoint x="1760" y="130" />
            </Array>
          </mxGeometry>
        </mxCell>
        <mxCell id="yJn6SPzeygh8hPmNk8Ll-2" value="&lt;font color=&quot;#000000&quot; style=&quot;font-size: 8px;&quot;&gt;&amp;nbsp;For two projects setup, one is for processing replicated data&amp;nbsp;&lt;/font&gt;&lt;div style=&quot;font-size: 8px;&quot;&gt;&lt;font color=&quot;#000000&quot; style=&quot;font-size: 8px;&quot;&gt;(technical users have access to the raw data),&amp;nbsp;&lt;/font&gt;&lt;div style=&quot;font-size: 8px;&quot;&gt;&lt;font color=&quot;#000000&quot; style=&quot;font-size: 8px;&quot;&gt;and one for reporting&amp;nbsp;&lt;/font&gt;&lt;/div&gt;&lt;div style=&quot;font-size: 8px;&quot;&gt;&lt;font color=&quot;#000000&quot; style=&quot;font-size: 8px;&quot;&gt;(business users can query the predefined models or views).&lt;/font&gt;&lt;br style=&quot;font-size: 8px;&quot;&gt;&lt;/div&gt;&lt;/div&gt;" style="strokeWidth=1;html=1;shape=mxgraph.flowchart.annotation_2;align=left;labelPosition=right;pointerEvents=1;strokeColor=#000000;fontColor=#FFFFFF;fillColor=#182E3E;rotation=0;flipV=1;flipH=1;verticalAlign=middle;fontSize=8;fontFamily=Verdana;" vertex="1" parent="2b4e8129b02d487f-2">
          <mxGeometry x="1780" y="100.6" width="20" height="60.25" as="geometry" />
        </mxCell>
        <mxCell id="yJn6SPzeygh8hPmNk8Ll-81" value="Validate output of Cortex Data Foundation Deployment&lt;span style=&quot;background-color: initial;&quot;&gt;&amp;nbsp;&lt;/span&gt;" style="rounded=1;whiteSpace=wrap;html=1;shadow=0;labelBackgroundColor=none;strokeWidth=1;fontFamily=Verdana;fontSize=8;align=center;" vertex="1" parent="2b4e8129b02d487f-2">
          <mxGeometry x="2480" y="200.5" width="130" height="58" as="geometry" />
        </mxCell>
        <mxCell id="2b4e8129b02d487f-3" value="PointStar" style="swimlane;html=1;startSize=20;horizontal=0;fontFamily=Verdana;fontSize=8;" parent="2b4e8129b02d487f-1" vertex="1">
          <mxGeometry y="340" width="2860" height="203" as="geometry" />
        </mxCell>
        <mxCell id="3nnQ7Ushw-DorLXUezs_-11" value="&lt;div style=&quot;font-size: 8px;&quot;&gt;Metrics/Columns/&lt;/div&gt;&lt;div style=&quot;font-size: 8px;&quot;&gt;Tables&amp;nbsp;&lt;span style=&quot;background-color: initial; font-size: 8px;&quot;&gt;covered&amp;nbsp;&lt;/span&gt;&lt;/div&gt;&lt;div style=&quot;font-size: 8px;&quot;&gt;under Cortex?&amp;nbsp;&lt;/div&gt;" style="strokeWidth=1;html=1;shape=mxgraph.flowchart.decision;whiteSpace=wrap;rounded=1;shadow=0;labelBackgroundColor=none;fontFamily=Verdana;fontSize=8;align=center;" parent="2b4e8129b02d487f-3" vertex="1">
          <mxGeometry x="256.25" y="20" width="112.5" height="110" as="geometry" />
        </mxCell>
        <mxCell id="8XIpxn57dQOoP4oBzjdO-20" value="&lt;div style=&quot;font-size: 8px;&quot;&gt;Information&amp;nbsp;&lt;/div&gt;&lt;div style=&quot;font-size: 8px;&quot;&gt;sufficient to&amp;nbsp;&lt;/div&gt;&lt;div style=&quot;font-size: 8px;&quot;&gt;deploy&amp;nbsp;&lt;span style=&quot;background-color: initial; font-size: 8px;&quot;&gt;Cortex ?&lt;/span&gt;&lt;/div&gt;" style="strokeWidth=1;html=1;shape=mxgraph.flowchart.decision;whiteSpace=wrap;rounded=1;shadow=0;labelBackgroundColor=none;fontFamily=Verdana;fontSize=8;align=center;" parent="2b4e8129b02d487f-3" vertex="1">
          <mxGeometry x="575" y="72" width="110" height="100" as="geometry" />
        </mxCell>
        <mxCell id="8XIpxn57dQOoP4oBzjdO-126" value="Yes" style="edgeStyle=orthogonalEdgeStyle;rounded=0;html=1;labelBackgroundColor=none;startArrow=none;startFill=0;startSize=5;endArrow=classicThin;endFill=1;endSize=5;jettySize=auto;orthogonalLoop=1;strokeWidth=1;fontFamily=Verdana;fontSize=8;exitX=0.5;exitY=1;exitDx=0;exitDy=0;exitPerimeter=0;entryX=0;entryY=0.5;entryDx=0;entryDy=0;entryPerimeter=0;" parent="2b4e8129b02d487f-3" source="3nnQ7Ushw-DorLXUezs_-11" target="8XIpxn57dQOoP4oBzjdO-20" edge="1">
          <mxGeometry x="0.0049" y="-6" relative="1" as="geometry">
            <mxPoint as="offset" />
            <mxPoint x="359" y="182" as="sourcePoint" />
            <mxPoint x="440" y="182" as="targetPoint" />
            <Array as="points">
              <mxPoint x="313" y="150" />
              <mxPoint x="460" y="150" />
              <mxPoint x="460" y="122" />
            </Array>
          </mxGeometry>
        </mxCell>
        <mxCell id="izewsPavvaRHflIKvxHS-9" value="Setup Github Repositories for Cortex Data Foundation for First Deployment and Future Upgrade" style="rounded=1;whiteSpace=wrap;html=1;shadow=0;labelBackgroundColor=none;strokeWidth=1;fontFamily=Verdana;fontSize=8;align=center;" parent="2b4e8129b02d487f-3" vertex="1">
          <mxGeometry x="1860" y="20" width="130" height="58" as="geometry" />
        </mxCell>
        <UserObject label="Setup Configuration in GCP for SAP data replication" linkTarget="_blank" id="izewsPavvaRHflIKvxHS-88">
          <mxCell style="shape=process;whiteSpace=wrap;html=1;backgroundOutline=1;fontFamily=Verdana;fontSize=8;" parent="2b4e8129b02d487f-3" vertex="1">
            <mxGeometry x="1380" y="29.999999999999996" width="120" height="60" as="geometry" />
          </mxCell>
        </UserObject>
        <UserObject label="Configure Cloud Build with Trigger for automated CI/CD Pipeline" linkTarget="_blank" id="izewsPavvaRHflIKvxHS-190">
          <mxCell style="shape=process;whiteSpace=wrap;html=1;backgroundOutline=1;fontFamily=Verdana;fontSize=8;" parent="2b4e8129b02d487f-3" vertex="1">
            <mxGeometry x="931.2" y="80" width="120" height="60" as="geometry" />
          </mxCell>
        </UserObject>
        <mxCell id="izewsPavvaRHflIKvxHS-199" value="Validate Raw Landing Dataset in BigQuery" style="strokeWidth=1;html=1;shape=mxgraph.flowchart.decision;whiteSpace=wrap;rounded=1;shadow=0;labelBackgroundColor=none;fontFamily=Verdana;fontSize=8;align=center;" parent="2b4e8129b02d487f-3" vertex="1">
          <mxGeometry x="1610" y="42" width="121.2" height="110.18" as="geometry" />
        </mxCell>
        <mxCell id="izewsPavvaRHflIKvxHS-205" value="Working as expected" style="edgeStyle=orthogonalEdgeStyle;rounded=0;html=1;labelBackgroundColor=none;startArrow=none;startFill=0;startSize=5;endArrow=classicThin;endFill=1;endSize=5;jettySize=auto;orthogonalLoop=1;strokeWidth=1;fontFamily=Verdana;fontSize=8;exitX=1;exitY=0.5;exitDx=0;exitDy=0;exitPerimeter=0;entryX=0;entryY=0.5;entryDx=0;entryDy=0;" parent="2b4e8129b02d487f-3" source="izewsPavvaRHflIKvxHS-199" target="izewsPavvaRHflIKvxHS-9" edge="1">
          <mxGeometry x="-0.5614" y="7" relative="1" as="geometry">
            <mxPoint as="offset" />
            <mxPoint x="1820" y="5" as="sourcePoint" />
            <mxPoint x="1820" y="181" as="targetPoint" />
            <Array as="points" />
          </mxGeometry>
        </mxCell>
        <mxCell id="yJn6SPzeygh8hPmNk8Ll-3" value="" style="edgeStyle=orthogonalEdgeStyle;rounded=0;html=1;labelBackgroundColor=none;startArrow=none;startFill=0;startSize=5;endArrow=classicThin;endFill=1;endSize=5;jettySize=auto;orthogonalLoop=1;strokeWidth=1;fontFamily=Verdana;fontSize=8;exitX=1;exitY=0.5;exitDx=0;exitDy=0;exitPerimeter=0;entryX=0;entryY=0.5;entryDx=0;entryDy=0;" edge="1" parent="2b4e8129b02d487f-3" source="izewsPavvaRHflIKvxHS-199" target="yJn6SPzeygh8hPmNk8Ll-78">
          <mxGeometry x="-0.5614" y="7" relative="1" as="geometry">
            <mxPoint as="offset" />
            <mxPoint x="1741" y="107" as="sourcePoint" />
            <mxPoint x="1860" y="143" as="targetPoint" />
            <Array as="points" />
          </mxGeometry>
        </mxCell>
        <UserObject label="Configure Cloud Build" linkTarget="_blank" id="yJn6SPzeygh8hPmNk8Ll-78">
          <mxCell style="shape=process;whiteSpace=wrap;html=1;backgroundOutline=1;fontFamily=Verdana;fontSize=8;" vertex="1" parent="2b4e8129b02d487f-3">
            <mxGeometry x="1860" y="112" width="120" height="60" as="geometry" />
          </mxCell>
        </UserObject>
        <mxCell id="2b4e8129b02d487f-11" value="" style="ellipse;whiteSpace=wrap;html=1;rounded=0;shadow=0;labelBackgroundColor=none;strokeWidth=2;fontFamily=Verdana;fontSize=8;align=center;fillColor=#d5e8d4;strokeColor=#82b366;" parent="2b4e8129b02d487f-3" vertex="1">
          <mxGeometry x="2800" y="68" width="30" height="30" as="geometry" />
        </mxCell>
        <mxCell id="yJn6SPzeygh8hPmNk8Ll-88" value="" style="edgeStyle=orthogonalEdgeStyle;rounded=0;html=1;labelBackgroundColor=none;startArrow=none;startFill=0;startSize=5;endArrow=classicThin;endFill=1;endSize=5;jettySize=auto;orthogonalLoop=1;strokeWidth=1;fontFamily=Verdana;fontSize=8;entryX=0;entryY=0.5;entryDx=0;entryDy=0;exitX=1;exitY=0.5;exitDx=0;exitDy=0;" edge="1" parent="2b4e8129b02d487f-3" source="yJn6SPzeygh8hPmNk8Ll-89" target="2b4e8129b02d487f-11">
          <mxGeometry x="-0.5614" y="7" relative="1" as="geometry">
            <mxPoint as="offset" />
            <mxPoint x="2750" y="83.00000000000011" as="sourcePoint" />
            <mxPoint x="2680" y="93" as="targetPoint" />
            <Array as="points" />
          </mxGeometry>
        </mxCell>
        <UserObject label="Spin Up Cloud Composer" linkTarget="_blank" id="yJn6SPzeygh8hPmNk8Ll-89">
          <mxCell style="shape=process;whiteSpace=wrap;html=1;backgroundOutline=1;fontFamily=Verdana;fontSize=8;" vertex="1" parent="2b4e8129b02d487f-3">
            <mxGeometry x="2660" y="53" width="120" height="60" as="geometry" />
          </mxCell>
        </UserObject>
        <UserObject label="Execute Deployment" linkTarget="_blank" id="yJn6SPzeygh8hPmNk8Ll-90">
          <mxCell style="shape=process;whiteSpace=wrap;html=1;backgroundOutline=1;fontFamily=Verdana;fontSize=8;" vertex="1" parent="2b4e8129b02d487f-3">
            <mxGeometry x="2320" y="80" width="120" height="60" as="geometry" />
          </mxCell>
        </UserObject>
        <mxCell id="yJn6SPzeygh8hPmNk8Ll-91" value="" style="edgeStyle=orthogonalEdgeStyle;rounded=0;html=1;labelBackgroundColor=none;startArrow=none;startFill=0;startSize=5;endArrow=classicThin;endFill=1;endSize=5;jettySize=auto;orthogonalLoop=1;strokeWidth=1;fontFamily=Verdana;fontSize=8;entryX=0.5;entryY=1;entryDx=0;entryDy=0;exitX=1;exitY=0.5;exitDx=0;exitDy=0;" edge="1" parent="2b4e8129b02d487f-3" source="yJn6SPzeygh8hPmNk8Ll-90" target="yJn6SPzeygh8hPmNk8Ll-93">
          <mxGeometry x="-0.5614" y="7" relative="1" as="geometry">
            <mxPoint as="offset" />
            <mxPoint x="2380" y="120" as="sourcePoint" />
            <mxPoint x="2450" y="-80" as="targetPoint" />
            <Array as="points" />
          </mxGeometry>
        </mxCell>
        <mxCell id="yJn6SPzeygh8hPmNk8Ll-97" value="&lt;font style=&quot;font-size: 8px;&quot; face=&quot;Verdana&quot;&gt;Readjust config file for redeployment&lt;/font&gt;" style="edgeLabel;html=1;align=center;verticalAlign=middle;resizable=0;points=[];fontSize=12;" vertex="1" connectable="0" parent="yJn6SPzeygh8hPmNk8Ll-91">
          <mxGeometry x="-0.6422" y="-1" relative="1" as="geometry">
            <mxPoint x="-119" y="24" as="offset" />
          </mxGeometry>
        </mxCell>
        <mxCell id="yJn6SPzeygh8hPmNk8Ll-93" value="&lt;font style=&quot;text-wrap: nowrap;&quot;&gt;Push to github to&amp;nbsp;&lt;/font&gt;&lt;div style=&quot;text-wrap: nowrap;&quot;&gt;trigger Cortex deployment&lt;/div&gt;" style="rounded=1;whiteSpace=wrap;html=1;shadow=0;labelBackgroundColor=none;strokeWidth=1;fontFamily=Verdana;fontSize=8;align=center;" vertex="1" parent="2b4e8129b02d487f-3">
          <mxGeometry x="2160" y="81" width="130" height="58" as="geometry" />
        </mxCell>
        <mxCell id="yJn6SPzeygh8hPmNk8Ll-96" value="" style="edgeStyle=orthogonalEdgeStyle;rounded=0;html=1;labelBackgroundColor=none;startArrow=none;startFill=0;startSize=5;endArrow=classicThin;endFill=1;endSize=5;jettySize=auto;orthogonalLoop=1;strokeWidth=1;fontFamily=Verdana;fontSize=8;entryX=0;entryY=0.5;entryDx=0;entryDy=0;exitX=1;exitY=0.5;exitDx=0;exitDy=0;" edge="1" parent="2b4e8129b02d487f-3" source="yJn6SPzeygh8hPmNk8Ll-93" target="yJn6SPzeygh8hPmNk8Ll-90">
          <mxGeometry x="-0.5614" y="7" relative="1" as="geometry">
            <mxPoint as="offset" />
            <mxPoint x="2450" y="120" as="sourcePoint" />
            <mxPoint x="2390" y="150" as="targetPoint" />
            <Array as="points" />
          </mxGeometry>
        </mxCell>
        <mxCell id="2b4e8129b02d487f-4" value="" style="swimlane;html=1;startSize=20;horizontal=0;fontFamily=Verdana;fontSize=8;" parent="2b4e8129b02d487f-1" vertex="1" collapsed="1">
          <mxGeometry y="543" width="2860" height="30" as="geometry">
            <mxRectangle y="543" width="1040" height="150" as="alternateBounds" />
          </mxGeometry>
        </mxCell>
        <mxCell id="2b4e8129b02d487f-26" style="edgeStyle=orthogonalEdgeStyle;rounded=0;html=1;labelBackgroundColor=none;startArrow=none;startFill=0;startSize=5;endArrow=classicThin;endFill=1;endSize=5;jettySize=auto;orthogonalLoop=1;strokeWidth=1;fontFamily=Verdana;fontSize=8;entryX=0.5;entryY=0;entryDx=0;entryDy=0;entryPerimeter=0;exitX=0.5;exitY=1;exitDx=0;exitDy=0;" parent="2b4e8129b02d487f-1" source="8XIpxn57dQOoP4oBzjdO-18" target="3nnQ7Ushw-DorLXUezs_-11" edge="1">
          <mxGeometry relative="1" as="geometry">
            <mxPoint x="150" y="260" as="sourcePoint" />
          </mxGeometry>
        </mxCell>
        <mxCell id="8XIpxn57dQOoP4oBzjdO-3" value="No" style="edgeStyle=orthogonalEdgeStyle;rounded=0;html=1;labelBackgroundColor=none;startArrow=none;startFill=0;startSize=5;endArrow=classicThin;endFill=1;endSize=5;jettySize=auto;orthogonalLoop=1;strokeWidth=1;fontFamily=Verdana;fontSize=8;exitX=1;exitY=0.5;exitDx=0;exitDy=0;exitPerimeter=0;entryX=0.5;entryY=1;entryDx=0;entryDy=0;" parent="2b4e8129b02d487f-1" source="3nnQ7Ushw-DorLXUezs_-11" target="2b4e8129b02d487f-9" edge="1">
          <mxGeometry x="-0.7099" y="10" relative="1" as="geometry">
            <mxPoint as="offset" />
            <mxPoint x="226" y="389" as="sourcePoint" />
            <mxPoint x="560" y="252" as="targetPoint" />
            <Array as="points">
              <mxPoint x="460" y="415" />
              <mxPoint x="460" y="322" />
              <mxPoint x="630" y="322" />
            </Array>
          </mxGeometry>
        </mxCell>
        <mxCell id="2b4e8129b02d487f-22" style="edgeStyle=orthogonalEdgeStyle;rounded=0;html=1;labelBackgroundColor=none;startArrow=none;startFill=0;startSize=5;endArrow=classicThin;endFill=1;endSize=5;jettySize=auto;orthogonalLoop=1;strokeWidth=1;fontFamily=Verdana;fontSize=8;exitX=1;exitY=0.5;exitDx=0;exitDy=0;entryX=1;entryY=0.5;entryDx=0;entryDy=0;entryPerimeter=0;" parent="2b4e8129b02d487f-1" source="2b4e8129b02d487f-9" target="8XIpxn57dQOoP4oBzjdO-20" edge="1">
          <mxGeometry relative="1" as="geometry">
            <mxPoint x="560" y="415" as="targetPoint" />
            <Array as="points">
              <mxPoint x="720" y="280" />
              <mxPoint x="720" y="462" />
            </Array>
          </mxGeometry>
        </mxCell>
        <mxCell id="8XIpxn57dQOoP4oBzjdO-21" value="" style="edgeStyle=orthogonalEdgeStyle;rounded=0;html=1;labelBackgroundColor=none;startArrow=none;startFill=0;startSize=5;endArrow=classicThin;endFill=1;endSize=5;jettySize=auto;orthogonalLoop=1;strokeWidth=1;fontFamily=Verdana;fontSize=8;exitX=0.5;exitY=0;exitDx=0;exitDy=0;exitPerimeter=0;entryX=0.5;entryY=1;entryDx=0;entryDy=0;" parent="2b4e8129b02d487f-1" source="8XIpxn57dQOoP4oBzjdO-20" target="2b4e8129b02d487f-9" edge="1">
          <mxGeometry x="0.0049" y="-6" relative="1" as="geometry">
            <mxPoint as="offset" />
            <mxPoint x="206" y="365" as="sourcePoint" />
            <mxPoint x="400" y="355" as="targetPoint" />
            <Array as="points">
              <mxPoint x="630" y="312" />
              <mxPoint x="630" y="312" />
            </Array>
          </mxGeometry>
        </mxCell>
        <mxCell id="8XIpxn57dQOoP4oBzjdO-22" value="No" style="edgeLabel;html=1;align=center;verticalAlign=middle;resizable=0;points=[];fontSize=8;fontFamily=Verdana;" parent="8XIpxn57dQOoP4oBzjdO-21" vertex="1" connectable="0">
          <mxGeometry x="-0.5805" y="1" relative="1" as="geometry">
            <mxPoint as="offset" />
          </mxGeometry>
        </mxCell>
        <mxCell id="8XIpxn57dQOoP4oBzjdO-23" value="Yes" style="edgeStyle=orthogonalEdgeStyle;rounded=0;html=1;labelBackgroundColor=none;startArrow=none;startFill=0;startSize=5;endArrow=classicThin;endFill=1;endSize=5;jettySize=auto;orthogonalLoop=1;strokeWidth=1;fontFamily=Verdana;fontSize=8;exitX=0.5;exitY=1;exitDx=0;exitDy=0;exitPerimeter=0;entryX=0;entryY=0.5;entryDx=0;entryDy=0;entryPerimeter=0;" parent="2b4e8129b02d487f-1" source="8XIpxn57dQOoP4oBzjdO-20" target="izewsPavvaRHflIKvxHS-80" edge="1">
          <mxGeometry x="-0.8347" y="12" relative="1" as="geometry">
            <mxPoint as="offset" />
            <mxPoint x="440" y="450" as="sourcePoint" />
            <mxPoint x="810" y="472" as="targetPoint" />
            <Array as="points">
              <mxPoint x="880" y="512" />
              <mxPoint x="880" y="86" />
            </Array>
          </mxGeometry>
        </mxCell>
        <mxCell id="izewsPavvaRHflIKvxHS-189" value="&lt;div style=&quot;text-align: left; font-size: 8px;&quot;&gt;&lt;br style=&quot;font-size: 8px;&quot;&gt;&lt;/div&gt;" style="edgeStyle=orthogonalEdgeStyle;rounded=0;html=1;labelBackgroundColor=none;startArrow=none;startFill=0;startSize=5;endArrow=classicThin;endFill=1;endSize=5;jettySize=auto;orthogonalLoop=1;strokeWidth=1;fontFamily=Verdana;fontSize=8;exitX=1;exitY=0.5;exitDx=0;exitDy=0;entryX=0;entryY=0.5;entryDx=0;entryDy=0;" parent="2b4e8129b02d487f-1" source="fWoCJdbc-hyU086nvXv1-3" target="izewsPavvaRHflIKvxHS-88" edge="1">
          <mxGeometry x="-0.9512" y="-21" relative="1" as="geometry">
            <mxPoint as="offset" />
            <mxPoint x="1140" y="299" as="sourcePoint" />
            <mxPoint x="1220" y="299" as="targetPoint" />
            <Array as="points">
              <mxPoint x="1280" y="310" />
              <mxPoint x="1300" y="310" />
              <mxPoint x="1300" y="400" />
            </Array>
          </mxGeometry>
        </mxCell>
        <mxCell id="izewsPavvaRHflIKvxHS-191" value="Yes" style="edgeStyle=orthogonalEdgeStyle;rounded=0;html=1;labelBackgroundColor=none;startArrow=none;startFill=0;startSize=5;endArrow=classicThin;endFill=1;endSize=5;jettySize=auto;orthogonalLoop=1;strokeWidth=1;fontFamily=Verdana;fontSize=8;exitX=0.5;exitY=1;exitDx=0;exitDy=0;exitPerimeter=0;" parent="2b4e8129b02d487f-1" source="izewsPavvaRHflIKvxHS-80" target="izewsPavvaRHflIKvxHS-190" edge="1">
          <mxGeometry x="-0.9512" y="-21" relative="1" as="geometry">
            <mxPoint as="offset" />
            <mxPoint x="771" y="561" as="sourcePoint" />
            <mxPoint x="970" y="880" as="targetPoint" />
            <Array as="points" />
          </mxGeometry>
        </mxCell>
        <mxCell id="izewsPavvaRHflIKvxHS-192" value="For successful Cortex deployment in pre-production,&amp;nbsp;&lt;div style=&quot;font-size: 8px;&quot;&gt;it will trigger automated deployment to production&amp;nbsp;&lt;/div&gt;" style="edgeStyle=orthogonalEdgeStyle;rounded=0;html=1;labelBackgroundColor=none;startArrow=none;startFill=0;startSize=5;endArrow=classicThin;endFill=1;endSize=5;jettySize=auto;orthogonalLoop=1;strokeWidth=1;fontFamily=Verdana;fontSize=8;exitX=1;exitY=0.5;exitDx=0;exitDy=0;entryX=0;entryY=0.5;entryDx=0;entryDy=0;" parent="2b4e8129b02d487f-1" source="izewsPavvaRHflIKvxHS-190" target="fWoCJdbc-hyU086nvXv1-3" edge="1">
          <mxGeometry x="-1" y="-51" relative="1" as="geometry">
            <mxPoint x="-11" y="-1" as="offset" />
            <mxPoint x="1001" y="151" as="sourcePoint" />
            <mxPoint x="1001" y="430" as="targetPoint" />
            <Array as="points" />
          </mxGeometry>
        </mxCell>
        <mxCell id="izewsPavvaRHflIKvxHS-203" value="" style="edgeLabel;html=1;align=center;verticalAlign=middle;resizable=0;points=[];fontSize=8;strokeColor=#BAC8D3;fontColor=#EEEEEE;fillColor=#09555B;fontFamily=Verdana;" parent="izewsPavvaRHflIKvxHS-192" vertex="1" connectable="0">
          <mxGeometry x="-0.712" y="-11" relative="1" as="geometry">
            <mxPoint as="offset" />
          </mxGeometry>
        </mxCell>
        <mxCell id="izewsPavvaRHflIKvxHS-201" value="No" style="edgeStyle=orthogonalEdgeStyle;rounded=0;html=1;labelBackgroundColor=none;startArrow=none;startFill=0;startSize=5;endArrow=classicThin;endFill=1;endSize=5;jettySize=auto;orthogonalLoop=1;strokeWidth=1;fontFamily=Verdana;fontSize=8;exitX=0.5;exitY=1;exitDx=0;exitDy=0;exitPerimeter=0;entryX=0.5;entryY=0;entryDx=0;entryDy=0;entryPerimeter=0;" parent="2b4e8129b02d487f-1" source="izewsPavvaRHflIKvxHS-83" target="izewsPavvaRHflIKvxHS-199" edge="1">
          <mxGeometry x="-0.9512" y="-21" relative="1" as="geometry">
            <mxPoint as="offset" />
            <mxPoint x="1741" y="161" as="sourcePoint" />
            <mxPoint x="1680" y="380" as="targetPoint" />
            <Array as="points" />
          </mxGeometry>
        </mxCell>
        <mxCell id="izewsPavvaRHflIKvxHS-204" value="" style="edgeStyle=orthogonalEdgeStyle;rounded=0;html=1;labelBackgroundColor=none;startArrow=none;startFill=0;startSize=5;endArrow=classicThin;endFill=1;endSize=5;jettySize=auto;orthogonalLoop=1;strokeWidth=1;fontFamily=Verdana;fontSize=8;exitX=0.5;exitY=1;exitDx=0;exitDy=0;entryX=0.5;entryY=0;entryDx=0;entryDy=0;entryPerimeter=0;" parent="2b4e8129b02d487f-1" source="izewsPavvaRHflIKvxHS-202" target="izewsPavvaRHflIKvxHS-199" edge="1">
          <mxGeometry x="-0.7771" y="-20" relative="1" as="geometry">
            <mxPoint y="1" as="offset" />
            <mxPoint x="1741" y="161" as="sourcePoint" />
            <mxPoint x="1770" y="261" as="targetPoint" />
            <Array as="points">
              <mxPoint x="1760" y="350" />
              <mxPoint x="1671" y="350" />
            </Array>
          </mxGeometry>
        </mxCell>
        <mxCell id="izewsPavvaRHflIKvxHS-207" value="Replication not as intended" style="edgeStyle=orthogonalEdgeStyle;rounded=0;html=1;labelBackgroundColor=none;startArrow=none;startFill=0;startSize=5;endArrow=classicThin;endFill=1;endSize=5;jettySize=auto;orthogonalLoop=1;strokeWidth=1;fontFamily=Verdana;fontSize=8;exitX=0.5;exitY=1;exitDx=0;exitDy=0;exitPerimeter=0;entryX=0;entryY=0.5;entryDx=0;entryDy=0;" parent="2b4e8129b02d487f-1" source="izewsPavvaRHflIKvxHS-199" target="izewsPavvaRHflIKvxHS-86" edge="1">
          <mxGeometry x="-0.7422" y="-12" relative="1" as="geometry">
            <mxPoint as="offset" />
            <mxPoint x="1540" y="490" as="sourcePoint" />
            <mxPoint x="1639" y="490" as="targetPoint" />
            <Array as="points">
              <mxPoint x="1300" y="492" />
              <mxPoint x="1300" y="200" />
            </Array>
          </mxGeometry>
        </mxCell>
        <mxCell id="yJn6SPzeygh8hPmNk8Ll-5" value="" style="edgeStyle=orthogonalEdgeStyle;rounded=0;html=1;labelBackgroundColor=none;startArrow=none;startFill=0;startSize=5;endArrow=classicThin;endFill=1;endSize=5;jettySize=auto;orthogonalLoop=1;strokeWidth=1;fontFamily=Verdana;fontSize=8;exitX=1;exitY=0.5;exitDx=0;exitDy=0;entryX=0;entryY=0.5;entryDx=0;entryDy=0;entryPerimeter=0;" edge="1" parent="2b4e8129b02d487f-1" source="yJn6SPzeygh8hPmNk8Ll-78" target="izewsPavvaRHflIKvxHS-73">
          <mxGeometry x="-0.5614" y="7" relative="1" as="geometry">
            <mxPoint as="offset" />
            <mxPoint x="1990" y="483" as="sourcePoint" />
            <mxPoint x="2120" y="271" as="targetPoint" />
            <Array as="points">
              <mxPoint x="2040" y="482" />
              <mxPoint x="2040" y="223" />
            </Array>
          </mxGeometry>
        </mxCell>
        <mxCell id="yJn6SPzeygh8hPmNk8Ll-8" value="" style="edgeStyle=orthogonalEdgeStyle;rounded=0;html=1;labelBackgroundColor=none;startArrow=none;startFill=0;startSize=5;endArrow=classicThin;endFill=1;endSize=5;jettySize=auto;orthogonalLoop=1;strokeWidth=1;fontFamily=Verdana;fontSize=8;entryX=0.5;entryY=0;entryDx=0;entryDy=0;" edge="1" parent="2b4e8129b02d487f-1" source="izewsPavvaRHflIKvxHS-73" target="yJn6SPzeygh8hPmNk8Ll-93">
          <mxGeometry x="-0.5614" y="7" relative="1" as="geometry">
            <mxPoint as="offset" />
            <mxPoint x="2150" y="484" as="sourcePoint" />
            <mxPoint x="2250" y="451" as="targetPoint" />
            <Array as="points">
              <mxPoint x="2225" y="223" />
            </Array>
          </mxGeometry>
        </mxCell>
        <mxCell id="yJn6SPzeygh8hPmNk8Ll-34" value="&lt;font style=&quot;font-size: 8px;&quot;&gt;Verified&lt;/font&gt;" style="edgeLabel;html=1;align=center;verticalAlign=middle;resizable=0;points=[];fontSize=8;fontFamily=Verdana;" vertex="1" connectable="0" parent="yJn6SPzeygh8hPmNk8Ll-8">
          <mxGeometry x="-0.5225" y="2" relative="1" as="geometry">
            <mxPoint as="offset" />
          </mxGeometry>
        </mxCell>
        <mxCell id="yJn6SPzeygh8hPmNk8Ll-35" value="" style="edgeStyle=orthogonalEdgeStyle;rounded=0;html=1;labelBackgroundColor=none;startArrow=none;startFill=0;startSize=5;endArrow=classicThin;endFill=1;endSize=5;jettySize=auto;orthogonalLoop=1;strokeWidth=1;fontFamily=Verdana;fontSize=8;entryX=0.5;entryY=1;entryDx=0;entryDy=0;exitX=0.5;exitY=1;exitDx=0;exitDy=0;exitPerimeter=0;" edge="1" parent="2b4e8129b02d487f-1" source="izewsPavvaRHflIKvxHS-73" target="yJn6SPzeygh8hPmNk8Ll-78">
          <mxGeometry x="-0.5614" y="7" relative="1" as="geometry">
            <mxPoint as="offset" />
            <mxPoint x="2211" y="259" as="sourcePoint" />
            <mxPoint x="1990" y="483" as="targetPoint" />
            <Array as="points" />
          </mxGeometry>
        </mxCell>
        <mxCell id="yJn6SPzeygh8hPmNk8Ll-36" value="&lt;font style=&quot;font-size: 8px;&quot;&gt;Corrections Required&lt;/font&gt;" style="edgeLabel;html=1;align=center;verticalAlign=middle;resizable=0;points=[];fontSize=8;fontFamily=Verdana;" vertex="1" connectable="0" parent="yJn6SPzeygh8hPmNk8Ll-35">
          <mxGeometry x="-0.5225" y="2" relative="1" as="geometry">
            <mxPoint x="-43" y="-106" as="offset" />
          </mxGeometry>
        </mxCell>
        <mxCell id="yJn6SPzeygh8hPmNk8Ll-82" value="" style="edgeStyle=orthogonalEdgeStyle;rounded=0;html=1;labelBackgroundColor=none;startArrow=none;startFill=0;startSize=5;endArrow=classicThin;endFill=1;endSize=5;jettySize=auto;orthogonalLoop=1;strokeWidth=1;fontFamily=Verdana;fontSize=8;entryX=0;entryY=0.5;entryDx=0;entryDy=0;exitX=1;exitY=0.5;exitDx=0;exitDy=0;" edge="1" parent="2b4e8129b02d487f-1" source="yJn6SPzeygh8hPmNk8Ll-90" target="yJn6SPzeygh8hPmNk8Ll-81">
          <mxGeometry x="-0.5614" y="7" relative="1" as="geometry">
            <mxPoint as="offset" />
            <mxPoint x="2380" y="451" as="sourcePoint" />
            <mxPoint x="2270" y="457" as="targetPoint" />
            <Array as="points" />
          </mxGeometry>
        </mxCell>
        <mxCell id="yJn6SPzeygh8hPmNk8Ll-83" value="&lt;font style=&quot;font-size: 8px;&quot;&gt;Triggers customer validation after&amp;nbsp;&lt;/font&gt;&lt;div&gt;&lt;font style=&quot;font-size: 8px;&quot;&gt;passing automated integrated testing&lt;/font&gt;&lt;/div&gt;" style="edgeLabel;html=1;align=center;verticalAlign=middle;resizable=0;points=[];fontSize=8;fontFamily=Verdana;" vertex="1" connectable="0" parent="yJn6SPzeygh8hPmNk8Ll-82">
          <mxGeometry x="-0.5225" y="2" relative="1" as="geometry">
            <mxPoint x="2" y="-51" as="offset" />
          </mxGeometry>
        </mxCell>
        <mxCell id="yJn6SPzeygh8hPmNk8Ll-85" value="" style="edgeStyle=orthogonalEdgeStyle;rounded=0;html=1;labelBackgroundColor=none;startArrow=none;startFill=0;startSize=5;endArrow=classicThin;endFill=1;endSize=5;jettySize=auto;orthogonalLoop=1;strokeWidth=1;fontFamily=Verdana;fontSize=8;entryX=0;entryY=0.5;entryDx=0;entryDy=0;exitX=1;exitY=0.5;exitDx=0;exitDy=0;" edge="1" parent="2b4e8129b02d487f-1" source="yJn6SPzeygh8hPmNk8Ll-81" target="yJn6SPzeygh8hPmNk8Ll-89">
          <mxGeometry x="-0.5614" y="7" relative="1" as="geometry">
            <mxPoint as="offset" />
            <mxPoint x="2630" y="447" as="sourcePoint" />
            <mxPoint x="2620" y="423.0000000000001" as="targetPoint" />
            <Array as="points">
              <mxPoint x="2630" y="249" />
            </Array>
          </mxGeometry>
        </mxCell>
        <mxCell id="izewsPavvaRHflIKvxHS-198" value="&lt;div style=&quot;text-align: left; font-size: 8px;&quot;&gt;&lt;br style=&quot;font-size: 8px;&quot;&gt;&lt;/div&gt;" style="edgeStyle=orthogonalEdgeStyle;rounded=0;html=1;labelBackgroundColor=none;startArrow=none;startFill=0;startSize=5;endArrow=classicThin;endFill=1;endSize=5;jettySize=auto;orthogonalLoop=1;strokeWidth=1;fontFamily=Verdana;fontSize=8;exitX=1;exitY=0.5;exitDx=0;exitDy=0;" parent="1" source="izewsPavvaRHflIKvxHS-88" edge="1">
          <mxGeometry x="-0.9512" y="-21" relative="1" as="geometry">
            <mxPoint as="offset" />
            <mxPoint x="1250" y="290" as="sourcePoint" />
            <mxPoint x="1520" y="210" as="targetPoint" />
            <Array as="points">
              <mxPoint x="1500" y="460" />
              <mxPoint x="1500" y="210" />
            </Array>
          </mxGeometry>
        </mxCell>
      </root>
    </mxGraphModel>
  </diagram>
  <diagram id="Fh5O_g48YYfGhgq8CeZX" name="SAP Connector FlowChart">
    <mxGraphModel dx="2902" dy="1291" grid="0" gridSize="10" guides="1" tooltips="1" connect="1" arrows="1" fold="1" page="0" pageScale="1" pageWidth="827" pageHeight="1169" math="0" shadow="0">
      <root>
        <mxCell id="0" />
        <mxCell id="1" parent="0" />
        <mxCell id="ZNxIBc4UFbibxXV-EUMx-48" value="" style="rounded=1;whiteSpace=wrap;html=1;absoluteArcSize=1;arcSize=14;strokeWidth=2;fillColor=none;" parent="1" vertex="1">
          <mxGeometry x="-203" y="523" width="443" height="337" as="geometry" />
        </mxCell>
        <mxCell id="dxsN12rYEvU4QaZNu8Dx-1" value="" style="strokeWidth=2;html=1;shape=mxgraph.flowchart.start_2;whiteSpace=wrap;strokeColor=#82b366;fillColor=#d5e8d4;fontFamily=Verdana;fontSize=10;" parent="1" vertex="1">
          <mxGeometry x="56.5" y="-65" width="44" height="44" as="geometry" />
        </mxCell>
        <mxCell id="AF4WJMDVqRrGHxy-clu5-1" value="Inclined&amp;nbsp;&lt;span style=&quot;background-color: initial; font-size: 10px;&quot;&gt;to move&amp;nbsp;&lt;/span&gt;&lt;div style=&quot;font-size: 10px;&quot;&gt;to S/4&amp;nbsp;&lt;/div&gt;&lt;div style=&quot;font-size: 10px;&quot;&gt;in near future&lt;/div&gt;" style="strokeWidth=2;html=1;shape=mxgraph.flowchart.decision;whiteSpace=wrap;fontFamily=Verdana;fontSize=10;" parent="1" vertex="1">
          <mxGeometry x="19" y="32" width="119" height="119" as="geometry" />
        </mxCell>
        <UserObject label="&lt;div&gt;Replicating data from SAP Applications to BigQuery through SAP Data Services and SAP LT Replication Server&lt;br&gt;&lt;/div&gt;" link="https://docs.google.com/spreadsheets/d/1UfQDruvGNXdOX_HyEKdFS9WtTrrFMmgHbjSLisxJOdM/edit?gid=693102947#gid=693102947&amp;range=3:3" linkTarget="_blank" id="SFcGnx7mLSgT0pp6m9PU-1">
          <mxCell style="rounded=1;whiteSpace=wrap;html=1;absoluteArcSize=1;arcSize=14;strokeWidth=2;fontFamily=Verdana;fontSize=10;fillStyle=solid;" parent="1" vertex="1">
            <mxGeometry x="-851" y="429" width="100" height="100" as="geometry" />
          </mxCell>
        </UserObject>
        <UserObject label="BigQuery Connector for SAP" link="https://docs.google.com/spreadsheets/d/1UfQDruvGNXdOX_HyEKdFS9WtTrrFMmgHbjSLisxJOdM/edit?gid=693102947#gid=693102947&amp;range=2:2" linkTarget="_blank" id="DWF0qlAUvdeteopLq8eq-1">
          <mxCell style="rounded=1;whiteSpace=wrap;html=1;absoluteArcSize=1;arcSize=14;strokeWidth=2;fontFamily=Verdana;fontSize=10;" parent="1" vertex="1">
            <mxGeometry x="-1024" y="429" width="100" height="100" as="geometry" />
          </mxCell>
        </UserObject>
        <UserObject label="Replicating data from SAP to BigQuery through SAP Datasphere" link="https://docs.google.com/spreadsheets/d/1UfQDruvGNXdOX_HyEKdFS9WtTrrFMmgHbjSLisxJOdM/edit?gid=693102947#gid=693102947&amp;range=4:4" linkTarget="_blank" id="DWF0qlAUvdeteopLq8eq-3">
          <mxCell style="rounded=1;whiteSpace=wrap;html=1;absoluteArcSize=1;arcSize=14;strokeWidth=2;fontFamily=Verdana;fontSize=10;fontStyle=0" parent="1" vertex="1">
            <mxGeometry x="-678" y="429" width="100" height="100" as="geometry" />
          </mxCell>
        </UserObject>
        <mxCell id="DWF0qlAUvdeteopLq8eq-4" value="Invest in /&amp;nbsp;&lt;div style=&quot;font-size: 10px;&quot;&gt;in possession of&amp;nbsp;&lt;/div&gt;&lt;div style=&quot;font-size: 10px;&quot;&gt;SAP Landscape Transformation&amp;nbsp;&lt;/div&gt;&lt;div style=&quot;font-size: 10px;&quot;&gt;Replication&amp;nbsp;&lt;/div&gt;&lt;div style=&quot;font-size: 10px;&quot;&gt;Server&amp;nbsp;&lt;/div&gt;&lt;div style=&quot;font-size: 10px;&quot;&gt;(SLT)&lt;/div&gt;" style="strokeWidth=2;html=1;shape=mxgraph.flowchart.decision;whiteSpace=wrap;fontFamily=Verdana;fontSize=10;" parent="1" vertex="1">
          <mxGeometry x="-283" y="188" width="145" height="145" as="geometry" />
        </mxCell>
        <UserObject label="Export data from SAP systems to Google BigQuery through SAP Data Services" link="https://docs.google.com/spreadsheets/d/1UfQDruvGNXdOX_HyEKdFS9WtTrrFMmgHbjSLisxJOdM/edit?gid=693102947#gid=693102947&amp;range=5:5" linkTarget="_blank" id="DWF0qlAUvdeteopLq8eq-6">
          <mxCell style="rounded=1;whiteSpace=wrap;html=1;absoluteArcSize=1;arcSize=14;strokeWidth=2;fontFamily=Verdana;fontSize=10;" parent="1" vertex="1">
            <mxGeometry x="462" y="623" width="125" height="125" as="geometry" />
          </mxCell>
        </UserObject>
        <mxCell id="DWF0qlAUvdeteopLq8eq-9" value="&lt;font style=&quot;font-size: 10px;&quot;&gt;Cloud Data Fusion integrations for SAP&lt;/font&gt;" style="strokeWidth=2;html=1;shape=mxgraph.flowchart.decision;whiteSpace=wrap;fontFamily=Verdana;fontSize=10;" parent="1" vertex="1">
          <mxGeometry x="741" y="447" width="116" height="116" as="geometry" />
        </mxCell>
        <mxCell id="A2XolX-hbEGk9JB23Qu5-1" value="&lt;div style=&quot;text-align: start; font-size: 10px;&quot;&gt;&lt;span style=&quot;white-space-collapse: preserve; font-size: 10px;&quot;&gt;Invest in Partner Tooling &lt;/span&gt;&lt;/div&gt;&lt;div style=&quot;text-align: start; font-size: 10px;&quot;&gt;&lt;span style=&quot;white-space-collapse: preserve; font-size: 10px;&quot;&gt;for SAP data ingestion&lt;/span&gt;&lt;/div&gt;" style="strokeWidth=2;html=1;shape=mxgraph.flowchart.decision;whiteSpace=wrap;fontFamily=Verdana;fontSize=10;" parent="1" vertex="1">
          <mxGeometry x="269" y="327" width="159" height="159" as="geometry" />
        </mxCell>
        <UserObject label="Using SAP as a source for batch-based and delta-based data extraction in Cloud Data Fusion through the BW Open Hub Service" link="https://docs.google.com/spreadsheets/d/1UfQDruvGNXdOX_HyEKdFS9WtTrrFMmgHbjSLisxJOdM/edit?gid=693102947#gid=693102947&amp;range=6:6" linkTarget="_blank" id="A2XolX-hbEGk9JB23Qu5-2">
          <mxCell style="rounded=1;whiteSpace=wrap;html=1;absoluteArcSize=1;arcSize=14;strokeWidth=2;fontFamily=Verdana;fontSize=10;" parent="1" vertex="1">
            <mxGeometry x="838" y="623" width="125" height="125" as="geometry" />
          </mxCell>
        </UserObject>
        <UserObject label="SAP ODP plugin enables bulk data integration from SAP applications with BigQuery using Cloud Data Fusion" link="https://docs.google.com/spreadsheets/d/1UfQDruvGNXdOX_HyEKdFS9WtTrrFMmgHbjSLisxJOdM/edit?gid=693102947#gid=693102947&amp;range=7:7" linkTarget="_blank" id="A2XolX-hbEGk9JB23Qu5-3">
          <mxCell style="rounded=1;whiteSpace=wrap;html=1;absoluteArcSize=1;arcSize=14;strokeWidth=2;fontFamily=Verdana;fontSize=10;" parent="1" vertex="1">
            <mxGeometry x="644" y="623" width="125" height="125" as="geometry" />
          </mxCell>
        </UserObject>
        <UserObject label="&lt;span style=&quot;text-align: left; white-space-collapse: preserve;&quot;&gt;Enable real time replication of data from SAP applications to Google Cloud using SAP Landscape Transformation (SLT)&lt;/span&gt;" link="https://docs.google.com/spreadsheets/d/1UfQDruvGNXdOX_HyEKdFS9WtTrrFMmgHbjSLisxJOdM/edit?gid=693102947#gid=693102947&amp;range=8:8" linkTarget="_blank" id="A2XolX-hbEGk9JB23Qu5-5">
          <mxCell style="rounded=1;whiteSpace=wrap;html=1;absoluteArcSize=1;arcSize=14;strokeWidth=2;fontFamily=Verdana;fontSize=10;" parent="1" vertex="1">
            <mxGeometry x="-485" y="429" width="100" height="100" as="geometry" />
          </mxCell>
        </UserObject>
        <mxCell id="A2XolX-hbEGk9JB23Qu5-8" value="&lt;a href=&quot;https://docs.google.com/spreadsheets/d/1UfQDruvGNXdOX_HyEKdFS9WtTrrFMmgHbjSLisxJOdM/edit?gid=693102947#gid=693102947&amp;amp;range=16:16&quot; class=&quot;waffle-rich-text-link&quot; style=&quot;color: rgb(17, 85, 204); font-size: 10px; text-align: left; white-space-collapse: preserve; text-decoration-skip-ink: none;&quot;&gt;SNP Glue &lt;/a&gt;" style="rounded=1;whiteSpace=wrap;html=1;absoluteArcSize=1;arcSize=14;strokeWidth=2;fontFamily=Verdana;fontSize=10;" parent="1" vertex="1">
          <mxGeometry x="-43" y="755.5" width="148" height="80" as="geometry" />
        </mxCell>
        <mxCell id="A2XolX-hbEGk9JB23Qu5-9" value="&lt;a href=&quot;https://docs.google.com/spreadsheets/d/1UfQDruvGNXdOX_HyEKdFS9WtTrrFMmgHbjSLisxJOdM/edit?gid=693102947#gid=693102947&amp;amp;range=11:11&quot; class=&quot;waffle-rich-text-link&quot; style=&quot;color: rgb(17, 85, 204); font-size: 10px; text-align: left; white-space-collapse: preserve; text-decoration-skip-ink: none;&quot;&gt;Fivetran HVR&#39;s AppConnect&lt;/a&gt;" style="rounded=1;whiteSpace=wrap;html=1;absoluteArcSize=1;arcSize=14;strokeWidth=2;fontFamily=Verdana;fontSize=10;" parent="1" vertex="1">
          <mxGeometry x="63" y="651.5" width="148" height="80" as="geometry" />
        </mxCell>
        <mxCell id="A2XolX-hbEGk9JB23Qu5-10" value="&lt;a style=&quot;color: rgb(17, 85, 204); font-size: 10px; text-align: left; white-space-collapse: preserve; text-decoration-skip-ink: none;&quot; class=&quot;waffle-rich-text-link&quot; href=&quot;https://docs.google.com/spreadsheets/d/1UfQDruvGNXdOX_HyEKdFS9WtTrrFMmgHbjSLisxJOdM/edit?gid=693102947#gid=693102947&amp;amp;range=10:10&quot;&gt;AecorSoft Data Integrator&lt;/a&gt;" style="rounded=1;whiteSpace=wrap;html=1;absoluteArcSize=1;arcSize=14;strokeWidth=2;fontFamily=Verdana;fontSize=10;" parent="1" vertex="1">
          <mxGeometry x="-49" y="551" width="148" height="80" as="geometry" />
        </mxCell>
        <mxCell id="A2XolX-hbEGk9JB23Qu5-11" value="&lt;a href=&quot;https://docs.google.com/spreadsheets/d/1UfQDruvGNXdOX_HyEKdFS9WtTrrFMmgHbjSLisxJOdM/edit?gid=693102947#gid=693102947&amp;amp;range=14:14&quot; class=&quot;waffle-rich-text-link&quot; style=&quot;color: rgb(17, 85, 204); font-size: 10px; text-align: left; white-space-collapse: preserve; text-decoration-skip-ink: none;&quot;&gt;Qlik Data Integration&lt;/a&gt;" style="rounded=1;whiteSpace=wrap;html=1;absoluteArcSize=1;arcSize=14;strokeWidth=2;fontFamily=Verdana;fontSize=10;" parent="1" vertex="1">
          <mxGeometry x="-158" y="651.5" width="148" height="80" as="geometry" />
        </mxCell>
        <UserObject label="&lt;div style=&quot;text-align: start; font-size: 10px;&quot;&gt;&lt;span style=&quot;font-size: 10px; white-space-collapse: preserve; background-color: initial;&quot;&gt;SAP data are stored in pub/sub or cloud storage before moving to bigquery via dataflow or cloud composer&lt;/span&gt;&lt;/div&gt;" tags="https://docs.google.com/spreadsheets/d/1UfQDruvGNXdOX_HyEKdFS9WtTrrFMmgHbjSLisxJOdM/edit?gid=693102947#gid=693102947&amp;range=18:18" link="https://docs.google.com/spreadsheets/d/1UfQDruvGNXdOX_HyEKdFS9WtTrrFMmgHbjSLisxJOdM/edit?gid=693102947#gid=693102947&amp;range=18:18" linkTarget="_blank" id="A2XolX-hbEGk9JB23Qu5-12">
          <mxCell style="rounded=1;whiteSpace=wrap;html=1;absoluteArcSize=1;arcSize=14;strokeWidth=2;fontFamily=Verdana;fontSize=10;" parent="1" vertex="1">
            <mxGeometry x="1032" y="623" width="125" height="125" as="geometry" />
          </mxCell>
        </UserObject>
        <mxCell id="A2XolX-hbEGk9JB23Qu5-14" style="edgeStyle=none;curved=1;rounded=0;orthogonalLoop=1;jettySize=auto;html=1;strokeColor=#0B4D6A;fontSize=10;startSize=8;endSize=8;entryX=0.5;entryY=0;entryDx=0;entryDy=0;entryPerimeter=0;fontFamily=Verdana;" parent="1" source="dxsN12rYEvU4QaZNu8Dx-1" target="AF4WJMDVqRrGHxy-clu5-1" edge="1">
          <mxGeometry relative="1" as="geometry">
            <mxPoint x="-164" y="82" as="targetPoint" />
          </mxGeometry>
        </mxCell>
        <mxCell id="ZNxIBc4UFbibxXV-EUMx-1" value="" style="edgeStyle=orthogonalEdgeStyle;rounded=0;html=1;labelBackgroundColor=none;startArrow=none;startFill=0;startSize=5;endArrow=classicThin;endFill=1;endSize=5;jettySize=auto;orthogonalLoop=1;strokeWidth=1;fontFamily=Verdana;fontSize=10;exitX=0;exitY=0.5;exitDx=0;exitDy=0;exitPerimeter=0;entryX=0.5;entryY=0;entryDx=0;entryDy=0;entryPerimeter=0;" parent="1" source="AF4WJMDVqRrGHxy-clu5-1" target="DWF0qlAUvdeteopLq8eq-4" edge="1">
          <mxGeometry relative="1" as="geometry">
            <mxPoint x="-209" y="233" as="sourcePoint" />
            <mxPoint x="-297" y="152" as="targetPoint" />
            <Array as="points">
              <mxPoint x="-210" y="91" />
            </Array>
          </mxGeometry>
        </mxCell>
        <mxCell id="ZNxIBc4UFbibxXV-EUMx-2" value="Yes" style="edgeLabel;html=1;align=center;verticalAlign=middle;resizable=0;points=[];fontSize=10;fontFamily=Verdana;" parent="ZNxIBc4UFbibxXV-EUMx-1" vertex="1" connectable="0">
          <mxGeometry x="-0.2381" y="2" relative="1" as="geometry">
            <mxPoint x="4" y="-10" as="offset" />
          </mxGeometry>
        </mxCell>
        <mxCell id="ZNxIBc4UFbibxXV-EUMx-3" value="" style="edgeStyle=orthogonalEdgeStyle;rounded=0;html=1;labelBackgroundColor=none;startArrow=none;startFill=0;startSize=5;endArrow=classicThin;endFill=1;endSize=5;jettySize=auto;orthogonalLoop=1;strokeWidth=1;fontFamily=Verdana;fontSize=10;exitX=0;exitY=0.5;exitDx=0;exitDy=0;exitPerimeter=0;entryX=0.5;entryY=0;entryDx=0;entryDy=0;" parent="1" source="DWF0qlAUvdeteopLq8eq-4" target="SFcGnx7mLSgT0pp6m9PU-1" edge="1">
          <mxGeometry relative="1" as="geometry">
            <mxPoint x="-392" y="268" as="sourcePoint" />
            <mxPoint x="-476" y="343" as="targetPoint" />
            <Array as="points">
              <mxPoint x="-801" y="260" />
            </Array>
          </mxGeometry>
        </mxCell>
        <mxCell id="ZNxIBc4UFbibxXV-EUMx-4" value="Yes" style="edgeLabel;html=1;align=center;verticalAlign=middle;resizable=0;points=[];fontSize=10;fontFamily=Verdana;" parent="ZNxIBc4UFbibxXV-EUMx-3" vertex="1" connectable="0">
          <mxGeometry x="-0.2381" y="2" relative="1" as="geometry">
            <mxPoint x="189" y="-15" as="offset" />
          </mxGeometry>
        </mxCell>
        <mxCell id="ZNxIBc4UFbibxXV-EUMx-5" value="" style="edgeStyle=orthogonalEdgeStyle;rounded=0;html=1;labelBackgroundColor=none;startArrow=none;startFill=0;startSize=5;endArrow=classicThin;endFill=1;endSize=5;jettySize=auto;orthogonalLoop=1;strokeWidth=1;fontFamily=Verdana;fontSize=10;exitX=1;exitY=0.5;exitDx=0;exitDy=0;exitPerimeter=0;entryX=0.5;entryY=0;entryDx=0;entryDy=0;entryPerimeter=0;" parent="1" source="DWF0qlAUvdeteopLq8eq-4" target="A2XolX-hbEGk9JB23Qu5-1" edge="1">
          <mxGeometry relative="1" as="geometry">
            <mxPoint x="-360" y="271" as="sourcePoint" />
            <mxPoint x="-649" y="410" as="targetPoint" />
            <Array as="points">
              <mxPoint x="348" y="261" />
            </Array>
          </mxGeometry>
        </mxCell>
        <mxCell id="ZNxIBc4UFbibxXV-EUMx-6" value="No" style="edgeLabel;html=1;align=center;verticalAlign=middle;resizable=0;points=[];fontSize=10;fontFamily=Verdana;" parent="ZNxIBc4UFbibxXV-EUMx-5" vertex="1" connectable="0">
          <mxGeometry x="-0.2381" y="2" relative="1" as="geometry">
            <mxPoint x="1" y="-8" as="offset" />
          </mxGeometry>
        </mxCell>
        <mxCell id="ZNxIBc4UFbibxXV-EUMx-8" value="" style="edgeStyle=orthogonalEdgeStyle;rounded=0;html=1;labelBackgroundColor=none;startArrow=none;startFill=0;startSize=5;endArrow=classicThin;endFill=1;endSize=5;jettySize=auto;orthogonalLoop=1;strokeWidth=1;fontFamily=Verdana;fontSize=10;exitX=1;exitY=0.5;exitDx=0;exitDy=0;exitPerimeter=0;entryX=0.5;entryY=0;entryDx=0;entryDy=0;entryPerimeter=0;" parent="1" source="AF4WJMDVqRrGHxy-clu5-1" target="A2XolX-hbEGk9JB23Qu5-1" edge="1">
          <mxGeometry relative="1" as="geometry">
            <mxPoint x="-204" y="138" as="sourcePoint" />
            <mxPoint x="-287" y="198" as="targetPoint" />
            <Array as="points">
              <mxPoint x="349" y="92" />
            </Array>
          </mxGeometry>
        </mxCell>
        <mxCell id="ZNxIBc4UFbibxXV-EUMx-9" value="No" style="edgeLabel;html=1;align=center;verticalAlign=middle;resizable=0;points=[];fontSize=10;fontFamily=Verdana;" parent="ZNxIBc4UFbibxXV-EUMx-8" vertex="1" connectable="0">
          <mxGeometry x="-0.2381" y="2" relative="1" as="geometry">
            <mxPoint x="-60" y="-21" as="offset" />
          </mxGeometry>
        </mxCell>
        <mxCell id="ZNxIBc4UFbibxXV-EUMx-14" value="" style="edgeStyle=orthogonalEdgeStyle;rounded=0;html=1;labelBackgroundColor=none;startArrow=none;startFill=0;startSize=5;endArrow=classicThin;endFill=1;endSize=5;jettySize=auto;orthogonalLoop=1;strokeWidth=1;fontFamily=Verdana;fontSize=10;exitX=0;exitY=0.5;exitDx=0;exitDy=0;exitPerimeter=0;entryX=0.5;entryY=0;entryDx=0;entryDy=0;" parent="1" source="DWF0qlAUvdeteopLq8eq-4" target="DWF0qlAUvdeteopLq8eq-1" edge="1">
          <mxGeometry relative="1" as="geometry">
            <mxPoint x="-360" y="271" as="sourcePoint" />
            <mxPoint x="-851" y="402" as="targetPoint" />
            <Array as="points">
              <mxPoint x="-974" y="260" />
            </Array>
          </mxGeometry>
        </mxCell>
        <mxCell id="ZNxIBc4UFbibxXV-EUMx-15" value="&amp;nbsp;" style="edgeLabel;html=1;align=center;verticalAlign=middle;resizable=0;points=[];fontSize=10;fontFamily=Verdana;" parent="ZNxIBc4UFbibxXV-EUMx-14" vertex="1" connectable="0">
          <mxGeometry x="-0.2381" y="2" relative="1" as="geometry">
            <mxPoint x="-229" y="74" as="offset" />
          </mxGeometry>
        </mxCell>
        <mxCell id="ZNxIBc4UFbibxXV-EUMx-17" value="Use BigQuery API Streaming&amp;nbsp;&lt;div&gt;directly in SAP SLT Server&lt;/div&gt;" style="edgeLabel;html=1;align=center;verticalAlign=middle;resizable=0;points=[];fontSize=10;fontFamily=Verdana;" parent="1" vertex="1" connectable="0">
          <mxGeometry x="-659.9972403703341" y="267.00242983114697" as="geometry">
            <mxPoint x="-319" y="75" as="offset" />
          </mxGeometry>
        </mxCell>
        <mxCell id="ZNxIBc4UFbibxXV-EUMx-19" value="Use BigQuery Load Jobs&amp;nbsp;&lt;div&gt;in SAP Data Services&amp;nbsp;&lt;/div&gt;&lt;div&gt;with SAP SLT Server&lt;/div&gt;" style="edgeLabel;html=1;align=center;verticalAlign=middle;resizable=0;points=[];fontSize=10;fontFamily=Verdana;" parent="1" vertex="1" connectable="0">
          <mxGeometry x="-347.9972403703341" y="208.00242983114697" as="geometry">
            <mxPoint x="-452" y="140" as="offset" />
          </mxGeometry>
        </mxCell>
        <mxCell id="ZNxIBc4UFbibxXV-EUMx-21" value="" style="edgeStyle=orthogonalEdgeStyle;rounded=0;html=1;labelBackgroundColor=none;startArrow=none;startFill=0;startSize=5;endArrow=classicThin;endFill=1;endSize=5;jettySize=auto;orthogonalLoop=1;strokeWidth=1;fontFamily=Verdana;fontSize=10;entryX=0.5;entryY=0;entryDx=0;entryDy=0;exitX=0;exitY=0.5;exitDx=0;exitDy=0;exitPerimeter=0;" parent="1" source="DWF0qlAUvdeteopLq8eq-4" target="DWF0qlAUvdeteopLq8eq-3" edge="1">
          <mxGeometry relative="1" as="geometry">
            <mxPoint x="-397" y="257" as="sourcePoint" />
            <mxPoint x="-758" y="428" as="targetPoint" />
            <Array as="points">
              <mxPoint x="-397" y="261" />
              <mxPoint x="-592" y="260" />
            </Array>
          </mxGeometry>
        </mxCell>
        <mxCell id="ZNxIBc4UFbibxXV-EUMx-22" value="Use BigQuery Write Storage API&amp;nbsp;&lt;div&gt;in SAP Datasphere&amp;nbsp;&lt;/div&gt;&lt;div&gt;with SAP SLT Server&lt;/div&gt;" style="edgeLabel;html=1;align=center;verticalAlign=middle;resizable=0;points=[];fontSize=10;fontFamily=Verdana;" parent="ZNxIBc4UFbibxXV-EUMx-21" vertex="1" connectable="0">
          <mxGeometry x="-0.2381" y="2" relative="1" as="geometry">
            <mxPoint x="-158" y="88" as="offset" />
          </mxGeometry>
        </mxCell>
        <mxCell id="ZNxIBc4UFbibxXV-EUMx-24" value="" style="edgeStyle=orthogonalEdgeStyle;rounded=0;html=1;labelBackgroundColor=none;startArrow=none;startFill=0;startSize=5;endArrow=classicThin;endFill=1;endSize=5;jettySize=auto;orthogonalLoop=1;strokeWidth=1;fontFamily=Verdana;fontSize=10;entryX=0.5;entryY=0;entryDx=0;entryDy=0;exitX=0;exitY=0.5;exitDx=0;exitDy=0;exitPerimeter=0;" parent="1" source="DWF0qlAUvdeteopLq8eq-4" target="A2XolX-hbEGk9JB23Qu5-5" edge="1">
          <mxGeometry relative="1" as="geometry">
            <mxPoint x="-361" y="267" as="sourcePoint" />
            <mxPoint x="-582" y="429" as="targetPoint" />
            <Array as="points">
              <mxPoint x="-435" y="261" />
            </Array>
          </mxGeometry>
        </mxCell>
        <mxCell id="ZNxIBc4UFbibxXV-EUMx-25" value="Use Cloud Data Fusion&amp;nbsp;&lt;div&gt;to pull data from the storage bucket&amp;nbsp;&lt;/div&gt;&lt;div&gt;provided by SAP SLT Server&amp;nbsp;&lt;/div&gt;&lt;div&gt;and writes it to BigQuery&lt;/div&gt;" style="edgeLabel;html=1;align=center;verticalAlign=middle;resizable=0;points=[];fontSize=10;fontFamily=Verdana;" parent="ZNxIBc4UFbibxXV-EUMx-24" vertex="1" connectable="0">
          <mxGeometry x="-0.2381" y="2" relative="1" as="geometry">
            <mxPoint x="-22" y="83" as="offset" />
          </mxGeometry>
        </mxCell>
        <mxCell id="ZNxIBc4UFbibxXV-EUMx-27" style="edgeStyle=none;curved=1;rounded=0;orthogonalLoop=1;jettySize=auto;html=1;exitX=1;exitY=0.5;exitDx=0;exitDy=0;strokeColor=#0B4D6A;fontSize=12;startSize=8;endSize=8;" parent="1" source="DWF0qlAUvdeteopLq8eq-3" target="DWF0qlAUvdeteopLq8eq-3" edge="1">
          <mxGeometry relative="1" as="geometry" />
        </mxCell>
        <mxCell id="ZNxIBc4UFbibxXV-EUMx-37" style="edgeStyle=none;curved=1;rounded=0;orthogonalLoop=1;jettySize=auto;html=1;exitX=0.75;exitY=0;exitDx=0;exitDy=0;strokeColor=#0B4D6A;fontSize=12;startSize=8;endSize=8;" parent="1" source="A2XolX-hbEGk9JB23Qu5-11" target="A2XolX-hbEGk9JB23Qu5-11" edge="1">
          <mxGeometry relative="1" as="geometry" />
        </mxCell>
        <mxCell id="ZNxIBc4UFbibxXV-EUMx-38" value="" style="edgeStyle=orthogonalEdgeStyle;rounded=0;html=1;labelBackgroundColor=none;startArrow=none;startFill=0;startSize=5;endArrow=classicThin;endFill=1;endSize=5;jettySize=auto;orthogonalLoop=1;strokeWidth=1;fontFamily=Verdana;fontSize=10;exitX=1;exitY=0.5;exitDx=0;exitDy=0;exitPerimeter=0;entryX=0.5;entryY=0;entryDx=0;entryDy=0;" parent="1" source="A2XolX-hbEGk9JB23Qu5-1" target="DWF0qlAUvdeteopLq8eq-6" edge="1">
          <mxGeometry relative="1" as="geometry">
            <mxPoint x="958" y="406" as="sourcePoint" />
            <mxPoint x="1048" y="336.5" as="targetPoint" />
            <Array as="points">
              <mxPoint x="525" y="406" />
            </Array>
          </mxGeometry>
        </mxCell>
        <mxCell id="ZNxIBc4UFbibxXV-EUMx-39" value="No" style="edgeLabel;html=1;align=center;verticalAlign=middle;resizable=0;points=[];fontSize=10;fontFamily=Verdana;" parent="ZNxIBc4UFbibxXV-EUMx-38" vertex="1" connectable="0">
          <mxGeometry x="-0.2381" y="2" relative="1" as="geometry">
            <mxPoint x="-63" y="-15" as="offset" />
          </mxGeometry>
        </mxCell>
        <mxCell id="ZNxIBc4UFbibxXV-EUMx-44" value="&lt;font color=&quot;#000000&quot;&gt;Use BigQuery Load Jobs&amp;nbsp;&lt;/font&gt;&lt;div&gt;&lt;font color=&quot;#000000&quot;&gt;in SAP Data Services&lt;/font&gt;&lt;/div&gt;" style="edgeLabel;html=1;align=center;verticalAlign=middle;resizable=0;points=[];fontSize=12;strokeColor=#BAC8D3;fontColor=#EEEEEE;fillColor=#09555B;" parent="ZNxIBc4UFbibxXV-EUMx-38" vertex="1" connectable="0">
          <mxGeometry x="0.6993" y="-5" relative="1" as="geometry">
            <mxPoint x="7" y="-33" as="offset" />
          </mxGeometry>
        </mxCell>
        <mxCell id="ZNxIBc4UFbibxXV-EUMx-40" value="" style="edgeStyle=orthogonalEdgeStyle;rounded=0;html=1;labelBackgroundColor=none;startArrow=none;startFill=0;startSize=5;endArrow=classicThin;endFill=1;endSize=5;jettySize=auto;orthogonalLoop=1;strokeWidth=1;fontFamily=Verdana;fontSize=10;exitX=1;exitY=0.5;exitDx=0;exitDy=0;exitPerimeter=0;entryX=0.5;entryY=0;entryDx=0;entryDy=0;entryPerimeter=0;" parent="1" source="A2XolX-hbEGk9JB23Qu5-1" target="DWF0qlAUvdeteopLq8eq-9" edge="1">
          <mxGeometry relative="1" as="geometry">
            <mxPoint x="958" y="406" as="sourcePoint" />
            <mxPoint x="632" y="510.5" as="targetPoint" />
            <Array as="points">
              <mxPoint x="799" y="406" />
            </Array>
          </mxGeometry>
        </mxCell>
        <mxCell id="ZNxIBc4UFbibxXV-EUMx-43" value="Use custom tooling to&amp;nbsp;&lt;div&gt;create data pipeline&lt;/div&gt;" style="edgeStyle=orthogonalEdgeStyle;rounded=0;html=1;labelBackgroundColor=none;startArrow=none;startFill=0;startSize=5;endArrow=classicThin;endFill=1;endSize=5;jettySize=auto;orthogonalLoop=1;strokeWidth=1;fontFamily=Verdana;fontSize=10;exitX=1;exitY=0.5;exitDx=0;exitDy=0;exitPerimeter=0;entryX=0.5;entryY=0;entryDx=0;entryDy=0;" parent="1" source="A2XolX-hbEGk9JB23Qu5-1" target="A2XolX-hbEGk9JB23Qu5-12" edge="1">
          <mxGeometry x="0.731" relative="1" as="geometry">
            <mxPoint x="958" y="406" as="sourcePoint" />
            <mxPoint x="761" y="553.5" as="targetPoint" />
            <Array as="points">
              <mxPoint x="1095" y="406" />
            </Array>
            <mxPoint as="offset" />
          </mxGeometry>
        </mxCell>
        <mxCell id="ZNxIBc4UFbibxXV-EUMx-46" value="" style="edgeStyle=orthogonalEdgeStyle;rounded=0;html=1;labelBackgroundColor=none;startArrow=none;startFill=0;startSize=5;endArrow=classicThin;endFill=1;endSize=5;jettySize=auto;orthogonalLoop=1;strokeWidth=1;fontFamily=Verdana;fontSize=10;exitX=0;exitY=0.5;exitDx=0;exitDy=0;exitPerimeter=0;entryX=0.5;entryY=0;entryDx=0;entryDy=0;" parent="1" source="A2XolX-hbEGk9JB23Qu5-1" target="ZNxIBc4UFbibxXV-EUMx-48" edge="1">
          <mxGeometry relative="1" as="geometry">
            <mxPoint x="69" y="423" as="sourcePoint" />
            <mxPoint x="-138" y="561" as="targetPoint" />
            <Array as="points">
              <mxPoint x="19" y="406" />
            </Array>
          </mxGeometry>
        </mxCell>
        <mxCell id="ZNxIBc4UFbibxXV-EUMx-49" value="&lt;font color=&quot;#000000&quot;&gt;Common connectors&amp;nbsp;&lt;/font&gt;&lt;div&gt;&lt;font color=&quot;#000000&quot;&gt;used in SEA&lt;/font&gt;&lt;/div&gt;" style="edgeLabel;html=1;align=center;verticalAlign=middle;resizable=0;points=[];fontSize=12;strokeColor=#BAC8D3;fontColor=#EEEEEE;fillColor=#09555B;" parent="ZNxIBc4UFbibxXV-EUMx-46" vertex="1" connectable="0">
          <mxGeometry x="0.5648" y="-5" relative="1" as="geometry">
            <mxPoint as="offset" />
          </mxGeometry>
        </mxCell>
        <mxCell id="ZNxIBc4UFbibxXV-EUMx-50" value="Use SAP ODP Plugin&amp;nbsp;&lt;div&gt;directly to&amp;nbsp;&lt;div&gt;track and extract data&amp;nbsp;&lt;/div&gt;&lt;div&gt;in the data sources&amp;nbsp;&amp;nbsp;&lt;/div&gt;&lt;/div&gt;" style="edgeStyle=orthogonalEdgeStyle;rounded=0;html=1;labelBackgroundColor=none;startArrow=none;startFill=0;startSize=5;endArrow=classicThin;endFill=1;endSize=5;jettySize=auto;orthogonalLoop=1;strokeWidth=1;fontFamily=Verdana;fontSize=10;exitX=0;exitY=0.5;exitDx=0;exitDy=0;exitPerimeter=0;entryX=0.5;entryY=0;entryDx=0;entryDy=0;" parent="1" source="DWF0qlAUvdeteopLq8eq-9" target="A2XolX-hbEGk9JB23Qu5-3" edge="1">
          <mxGeometry x="0.3244" relative="1" as="geometry">
            <mxPoint x="438" y="417" as="sourcePoint" />
            <mxPoint x="1084" y="641" as="targetPoint" />
            <Array as="points">
              <mxPoint x="706" y="505" />
            </Array>
            <mxPoint as="offset" />
          </mxGeometry>
        </mxCell>
        <mxCell id="ZNxIBc4UFbibxXV-EUMx-51" value="Use SAP BW Open Hub&amp;nbsp;&lt;div&gt;Batch Source plugin to&amp;nbsp;&lt;div&gt;&lt;div&gt;track and extract data&amp;nbsp;&lt;/div&gt;&lt;div&gt;in the data sources&amp;nbsp;&amp;nbsp;&lt;/div&gt;&lt;/div&gt;&lt;/div&gt;" style="edgeStyle=orthogonalEdgeStyle;rounded=0;html=1;labelBackgroundColor=none;startArrow=none;startFill=0;startSize=5;endArrow=classicThin;endFill=1;endSize=5;jettySize=auto;orthogonalLoop=1;strokeWidth=1;fontFamily=Verdana;fontSize=10;exitX=1;exitY=0.5;exitDx=0;exitDy=0;exitPerimeter=0;entryX=0.5;entryY=0;entryDx=0;entryDy=0;" parent="1" source="DWF0qlAUvdeteopLq8eq-9" target="A2XolX-hbEGk9JB23Qu5-2" edge="1">
          <mxGeometry x="0.3244" relative="1" as="geometry">
            <mxPoint x="967" y="505" as="sourcePoint" />
            <mxPoint x="932" y="623" as="targetPoint" />
            <Array as="points">
              <mxPoint x="901" y="505" />
            </Array>
            <mxPoint as="offset" />
          </mxGeometry>
        </mxCell>
        <mxCell id="ZNxIBc4UFbibxXV-EUMx-52" value="&lt;font style=&quot;font-size: 10px;&quot; face=&quot;Verdana&quot;&gt;Preference 1 due to robust documentation and proven track record working with Cortex Framework&lt;/font&gt;" style="text;html=1;align=center;verticalAlign=middle;whiteSpace=wrap;rounded=0;fontSize=10;fontColor=#000000;dashed=1;strokeColor=default;" parent="1" vertex="1">
          <mxGeometry x="-738" y="146" width="95" height="106" as="geometry" />
        </mxCell>
        <mxCell id="ZNxIBc4UFbibxXV-EUMx-55" value="&lt;font style=&quot;font-size: 10px;&quot; face=&quot;Verdana&quot;&gt;Last Preference as it is license-based or consumption-based pricing&lt;/font&gt;" style="text;html=1;align=center;verticalAlign=middle;whiteSpace=wrap;rounded=0;fontSize=10;fontColor=#000000;strokeColor=default;dashed=1;" parent="1" vertex="1">
          <mxGeometry x="-174" y="413" width="117" height="81" as="geometry" />
        </mxCell>
        <mxCell id="ZNxIBc4UFbibxXV-EUMx-57" value="&lt;font style=&quot;font-size: 10px;&quot; face=&quot;Verdana&quot;&gt;Preference 2 as it is utilizes SAP provided integration tools. TBC on delta loads from SAP team&amp;nbsp;&lt;/font&gt;" style="text;html=1;align=center;verticalAlign=middle;whiteSpace=wrap;rounded=0;fontSize=10;fontColor=#000000;strokeColor=default;dashed=1;" parent="1" vertex="1">
          <mxGeometry x="347" y="542" width="117" height="81" as="geometry" />
        </mxCell>
        <mxCell id="ZNxIBc4UFbibxXV-EUMx-58" value="&lt;font style=&quot;font-size: 10px;&quot; face=&quot;Verdana&quot;&gt;Preference 3 as it is requires substantial configuration of resources&lt;/font&gt;" style="text;html=1;align=center;verticalAlign=middle;whiteSpace=wrap;rounded=0;fontSize=10;fontColor=#000000;strokeColor=default;dashed=1;" parent="1" vertex="1">
          <mxGeometry x="852" y="413" width="117" height="81" as="geometry" />
        </mxCell>
        <mxCell id="ZNxIBc4UFbibxXV-EUMx-59" value="&lt;font style=&quot;font-size: 10px;&quot; face=&quot;Verdana&quot;&gt;Preference 4 as it is requires development of custom, manual data pipeline&amp;nbsp;&lt;/font&gt;" style="text;html=1;align=center;verticalAlign=middle;whiteSpace=wrap;rounded=0;fontSize=10;fontColor=#000000;strokeColor=default;dashed=1;" parent="1" vertex="1">
          <mxGeometry x="1163" y="420" width="117" height="81" as="geometry" />
        </mxCell>
      </root>
    </mxGraphModel>
  </diagram>
</mxfile>
